<svg width="27" height="24" viewBox="0 0 27 24" fill="none" xmlns="http://www.w3.org/2000/svg">
<path d="M5.69032 20.9993H4.47505V12.9432L2.03798 13.8383V12.7407L5.50084 11.4405H5.69032V20.9993ZM9.78695 16.2297L10.2704 11.4862H15.1446V12.6035H11.2962L11.0088 15.1973C11.4748 14.9229 12.0041 14.7857 12.5964 14.7857C13.4633 14.7857 14.1515 15.0732 14.6611 15.6482C15.1707 16.2188 15.4255 16.9919 15.4255 17.9676C15.4255 18.9477 15.1598 19.7208 14.6284 20.2871C14.1014 20.849 13.3631 21.1299 12.4135 21.1299C11.5728 21.1299 10.8868 20.8969 10.3554 20.4308C9.82398 19.9648 9.52125 19.3201 9.4472 18.4969H10.5906C10.6646 19.0413 10.8585 19.453 11.1721 19.7317C11.4857 20.0061 11.8995 20.1434 12.4135 20.1434C12.9754 20.1434 13.4153 19.9517 13.7333 19.5684C14.0556 19.1851 14.2168 18.6558 14.2168 17.9807C14.2168 17.3447 14.0426 16.8351 13.6941 16.4518C13.35 16.0641 12.8905 15.8703 12.3155 15.8703C11.7884 15.8703 11.3746 15.9857 11.0741 16.2166L10.7539 16.4779L9.78695 16.2297ZM16.6408 13.3156C16.6408 12.745 16.8216 12.2746 17.1831 11.9043C17.549 11.5341 18.0172 11.349 18.5879 11.349C19.1672 11.349 19.6354 11.5363 19.9926 11.9109C20.3541 12.2811 20.5349 12.7624 20.5349 13.3548V13.8187C20.5349 14.3937 20.352 14.8641 19.9861 15.23C19.6245 15.5915 19.1628 15.7723 18.6009 15.7723C18.0347 15.7723 17.5664 15.5915 17.1962 15.23C16.8259 14.8641 16.6408 14.3784 16.6408 13.773V13.3156ZM17.5425 13.8187C17.5425 14.1585 17.6383 14.4394 17.8299 14.6616C18.0216 14.8794 18.2786 14.9883 18.6009 14.9883C18.9102 14.9883 19.1585 14.8815 19.3458 14.6681C19.5374 14.4547 19.6332 14.1628 19.6332 13.7926V13.3156C19.6332 12.9759 19.5396 12.6949 19.3523 12.4728C19.165 12.2506 18.9102 12.1396 18.5879 12.1396C18.2655 12.1396 18.0107 12.2506 17.8234 12.4728C17.6361 12.6949 17.5425 12.9846 17.5425 13.3418V13.8187ZM21.2732 18.6667C21.2732 18.0961 21.454 17.6279 21.8155 17.262C22.1814 16.8917 22.6496 16.7066 23.2203 16.7066C23.7909 16.7066 24.2591 16.8896 24.625 17.2555C24.9909 17.6213 25.1738 18.107 25.1738 18.7125V19.1764C25.1738 19.747 24.9909 20.2174 24.625 20.5876C24.2635 20.9535 23.7996 21.1365 23.2333 21.1365C22.6671 21.1365 22.1988 20.9557 21.8286 20.5942C21.4583 20.2283 21.2732 19.7426 21.2732 19.1372V18.6667ZM22.1749 19.1764C22.1749 19.5205 22.2707 19.8036 22.4623 20.0257C22.654 20.2435 22.911 20.3524 23.2333 20.3524C23.5469 20.3524 23.7974 20.2457 23.9847 20.0323C24.172 19.8145 24.2656 19.5205 24.2656 19.1502V18.6667C24.2656 18.3226 24.1698 18.0417 23.9782 17.8239C23.7909 17.6061 23.5382 17.4972 23.2203 17.4972C22.911 17.4972 22.6584 17.6061 22.4623 17.8239C22.2707 18.0373 22.1749 18.327 22.1749 18.6929V19.1764ZM18.8753 20.2806L18.1893 19.8493L22.8348 12.414L23.5208 12.8452L18.8753 20.2806Z" fill="#F5F7F6"/>
<path d="M2.16141 6.83228V2.34765H3.42733C3.81747 2.34765 4.16244 2.4339 4.46224 2.60638C4.76204 2.77887 4.99304 3.02425 5.15526 3.34252C5.31953 3.6608 5.4027 4.02631 5.40475 4.43904V4.72549C5.40475 5.14849 5.32261 5.51913 5.15834 5.8374C4.99612 6.15568 4.76306 6.40003 4.45916 6.57047C4.15731 6.7409 3.80515 6.82817 3.40269 6.83228H2.16141ZM2.75278 2.83431V6.3487H3.37496C3.83082 6.3487 4.18503 6.20702 4.4376 5.92365C4.69222 5.64028 4.81953 5.23678 4.81953 4.71317V4.45136C4.81953 3.94212 4.69941 3.54684 4.45916 3.26552C4.22096 2.98215 3.88215 2.83842 3.44273 2.83431H2.75278ZM8.70969 5.66184H6.83083L6.40886 6.83228H5.799L7.51154 2.34765H8.02899L9.74461 6.83228H9.13783L8.70969 5.66184ZM7.00948 5.17518H8.53413L7.77026 3.07764L7.00948 5.17518ZM13.0465 2.83431H11.605V6.83228H11.0167V2.83431H9.57828V2.34765H13.0465V2.83431ZM15.9418 5.66184H14.0629L13.6409 6.83228H13.0311L14.7436 2.34765H15.2611L16.9767 6.83228H16.3699L15.9418 5.66184ZM14.2415 5.17518H15.7662L15.0023 3.07764L14.2415 5.17518ZM21.8094 4.91953C21.8094 5.58689 21.6954 6.08278 21.4675 6.40722C21.2395 6.73166 20.8833 6.89388 20.3987 6.89388C19.9202 6.89388 19.566 6.73577 19.336 6.41954C19.1061 6.10127 18.987 5.62693 18.9787 4.99654V4.23575C18.9787 3.57661 19.0927 3.08688 19.3206 2.76655C19.5486 2.44622 19.9058 2.28605 20.3925 2.28605C20.8751 2.28605 21.2303 2.44108 21.4582 2.75115C21.6861 3.05916 21.8032 3.53554 21.8094 4.18031V4.91953ZM21.2395 4.14027C21.2395 3.65772 21.1718 3.30659 21.0362 3.08688C20.9007 2.86511 20.6861 2.75423 20.3925 2.75423C20.1009 2.75423 19.8884 2.86408 19.7549 3.0838C19.6215 3.30351 19.5527 3.64129 19.5486 4.09715V5.00886C19.5486 5.49346 19.6184 5.85178 19.758 6.08381C19.8997 6.31379 20.1132 6.42878 20.3987 6.42878C20.68 6.42878 20.8884 6.31995 21.0239 6.10229C21.1615 5.88463 21.2334 5.54171 21.2395 5.07354V4.14027ZM24.412 6.83228H23.8391V3.03451L22.6903 3.45649V2.93903L24.3227 2.32609H24.412V6.83228Z" fill="#F5F7F6"/>
</svg>
