<svg width="52" height="60" viewBox="0 0 52 60" fill="none" xmlns="http://www.w3.org/2000/svg">
<path d="M25.4339 6.45038C26.6426 6.1871 27.8992 6.03152 29.1677 5.95971V0C27.3607 0.071804 25.6015 0.311135 23.8901 0.69409L25.4339 6.45038Z" fill="url(#paint0_linear_736_5607)"/>
<path d="M14.5313 12.0272C15.4647 11.1895 16.458 10.4235 17.5231 9.72943L14.5433 4.55957C13.0354 5.51696 11.6232 6.60598 10.3188 7.80271L14.5313 12.0272Z" fill="url(#paint1_linear_736_5607)"/>
<path d="M19.6057 8.52052C20.7187 7.94609 21.8795 7.46738 23.0882 7.08443L21.5444 1.31616C19.8331 1.85469 18.1935 2.53686 16.6258 3.3626L19.6057 8.52052Z" fill="url(#paint2_linear_736_5607)"/>
<path d="M10.5225 16.7302C11.2047 15.6771 11.9706 14.6718 12.8203 13.7384L8.6078 9.52588C7.41107 10.8303 6.32201 12.2425 5.36462 13.7503L10.5225 16.7302Z" fill="url(#paint3_linear_736_5607)"/>
<path d="M6.75286 28.3865C6.8127 27.106 6.98025 25.8613 7.24353 24.6526L1.48724 23.1089C1.10429 24.8202 0.876923 26.5794 0.793152 28.3865H6.75286Z" fill="url(#paint4_linear_736_5607)"/>
<path d="M7.86586 22.3071C8.26078 21.0984 8.73949 19.9375 9.30195 18.8246L4.14403 15.8447C3.31828 17.4124 2.63616 19.052 2.09763 20.7633L7.86586 22.3071Z" fill="url(#paint5_linear_736_5607)"/>
<path opacity="0.43" d="M56.6088 15.8447L51.4508 18.8246C52.0253 19.9375 52.504 21.0984 52.8869 22.3071L58.6552 20.7633C58.1166 19.052 57.4345 17.4005 56.6088 15.8447Z" fill="#406EB2"/>
<path opacity="0.43" d="M47.9328 13.7384C48.7705 14.6718 49.5364 15.6651 50.2305 16.7302L55.4004 13.7503C54.443 12.2425 53.354 10.8303 52.1573 9.52588L47.9328 13.7384Z" fill="#406EB2"/>
<path opacity="0.43" d="M37.6648 7.08443C38.8735 7.47935 40.0343 7.95806 41.1473 8.52052L44.1271 3.3626C42.5594 2.53686 40.9199 1.85469 39.2085 1.31616L37.6648 7.08443Z" fill="#406EB2"/>
<path opacity="0.43" d="M43.2411 9.72921C44.2942 10.4113 45.2995 11.1773 46.2329 12.027L50.4454 7.81446C49.141 6.61773 47.7288 5.52868 46.2209 4.57129L43.2411 9.72921Z" fill="#406EB2"/>
<path opacity="0.43" d="M31.5855 5.95971C32.866 6.01955 34.1106 6.1871 35.3193 6.45038L36.8631 0.69409C35.1518 0.311135 33.3926 0.0837714 31.5855 0V5.95971Z" fill="#406EB2"/>
<path d="M7.23147 34.5378C6.96819 33.3291 6.81265 32.0725 6.74085 30.804H0.781097C0.852901 32.611 1.09223 34.3702 1.47519 36.0816L7.23147 34.5378Z" fill="url(#paint6_linear_736_5607)"/>
<path d="M9.30195 40.3538C8.72752 39.2409 8.24881 38.08 7.86586 36.8713L2.09763 38.4151C2.63616 40.1264 3.31828 41.766 4.14403 43.3337L9.30195 40.3538Z" fill="url(#paint7_linear_736_5607)"/>
<path opacity="0.43" d="M46.2211 47.1514C45.2876 47.9891 44.2943 48.755 43.2292 49.4491L46.2091 54.619C47.717 53.6616 49.1291 52.5726 50.4336 51.3758L46.2211 47.1514Z" fill="#406EB2"/>
<path opacity="0.43" d="M52.8869 36.8833C52.492 38.092 52.0133 39.2528 51.4508 40.3658L56.6088 43.3457C57.4345 41.778 58.1166 40.1384 58.6552 38.4271L52.8869 36.8833Z" fill="#406EB2"/>
<path opacity="0.43" d="M41.1473 50.6577C40.0343 51.2321 38.8735 51.7109 37.6648 52.0938L39.2085 57.862C40.9199 57.3235 42.5594 56.6414 44.1271 55.8156L41.1473 50.6577Z" fill="#406EB2"/>
<path opacity="0.43" d="M50.2305 42.4602C49.5484 43.5133 48.7825 44.5186 47.9328 45.452L52.1453 49.6646C53.342 48.3601 54.4311 46.948 55.3885 45.4401L50.2305 42.4602Z" fill="#406EB2"/>
<path d="M17.5117 49.4491C16.4586 48.7669 15.4534 48.001 14.5199 47.1514L10.3074 51.3639C11.6118 52.5606 13.024 53.6496 14.5318 54.607L17.5117 49.4491Z" fill="url(#paint8_linear_736_5607)"/>
<path d="M12.8081 45.4398C11.9704 44.5064 11.2045 43.5131 10.5104 42.448L5.34053 45.4279C6.29792 46.9357 7.38694 48.3479 8.58367 49.6523L12.8081 45.4398Z" fill="url(#paint9_linear_736_5607)"/>
<path d="M29.1677 53.2189C27.8872 53.1591 26.6426 52.9916 25.4339 52.7283L23.8901 58.4846C25.6015 58.8675 27.3607 59.0949 29.1677 59.1786V53.2189Z" fill="url(#paint10_linear_736_5607)"/>
<path d="M23.0882 52.1057C21.8795 51.7108 20.7187 51.2321 19.6057 50.6697L16.6258 55.8276C18.1935 56.6533 19.8331 57.3355 21.5444 57.874L23.0882 52.1057Z" fill="url(#paint11_linear_736_5607)"/>
<path opacity="0.43" d="M35.3193 52.7283C34.1106 52.9916 32.8541 53.1471 31.5855 53.2189V59.1786C33.3926 59.1068 35.1518 58.8675 36.8631 58.4846L35.3193 52.7283Z" fill="#406EB2"/>
<defs>
<linearGradient id="paint0_linear_736_5607" x1="-164.851" y1="3.22854" x2="120.268" y2="3.22854" gradientUnits="userSpaceOnUse">
<stop offset="0.0101" stop-color="#F408AB"/>
<stop offset="1" stop-color="#27B7FF"/>
</linearGradient>
<linearGradient id="paint1_linear_736_5607" x1="-164.851" y1="8.29936" x2="120.268" y2="8.29936" gradientUnits="userSpaceOnUse">
<stop offset="0.0101" stop-color="#F408AB"/>
<stop offset="1" stop-color="#27B7FF"/>
</linearGradient>
<linearGradient id="paint2_linear_736_5607" x1="-164.851" y1="4.91811" x2="120.267" y2="4.91811" gradientUnits="userSpaceOnUse">
<stop offset="0.0101" stop-color="#F408AB"/>
<stop offset="1" stop-color="#27B7FF"/>
</linearGradient>
<linearGradient id="paint3_linear_736_5607" x1="-164.854" y1="13.1273" x2="120.269" y2="13.1273" gradientUnits="userSpaceOnUse">
<stop offset="0.0101" stop-color="#F408AB"/>
<stop offset="1" stop-color="#27B7FF"/>
</linearGradient>
<linearGradient id="paint4_linear_736_5607" x1="-164.854" y1="25.7413" x2="120.269" y2="25.7413" gradientUnits="userSpaceOnUse">
<stop offset="0.0101" stop-color="#F408AB"/>
<stop offset="1" stop-color="#27B7FF"/>
</linearGradient>
<linearGradient id="paint5_linear_736_5607" x1="-164.852" y1="19.0747" x2="120.268" y2="19.0747" gradientUnits="userSpaceOnUse">
<stop offset="0.0101" stop-color="#F408AB"/>
<stop offset="1" stop-color="#27B7FF"/>
</linearGradient>
<linearGradient id="paint6_linear_736_5607" x1="-164.854" y1="33.4424" x2="120.269" y2="33.4424" gradientUnits="userSpaceOnUse">
<stop offset="0.0101" stop-color="#F408AB"/>
<stop offset="1" stop-color="#27B7FF"/>
</linearGradient>
<linearGradient id="paint7_linear_736_5607" x1="-164.852" y1="40.109" x2="120.268" y2="40.109" gradientUnits="userSpaceOnUse">
<stop offset="0.0101" stop-color="#F408AB"/>
<stop offset="1" stop-color="#27B7FF"/>
</linearGradient>
<linearGradient id="paint8_linear_736_5607" x1="-164.852" y1="50.8844" x2="120.269" y2="50.8844" gradientUnits="userSpaceOnUse">
<stop offset="0.0101" stop-color="#F408AB"/>
<stop offset="1" stop-color="#27B7FF"/>
</linearGradient>
<linearGradient id="paint9_linear_736_5607" x1="-164.853" y1="46.0563" x2="120.269" y2="46.0563" gradientUnits="userSpaceOnUse">
<stop offset="0.0101" stop-color="#F408AB"/>
<stop offset="1" stop-color="#27B7FF"/>
</linearGradient>
<linearGradient id="paint10_linear_736_5607" x1="-164.851" y1="55.9554" x2="120.268" y2="55.9554" gradientUnits="userSpaceOnUse">
<stop offset="0.0101" stop-color="#F408AB"/>
<stop offset="1" stop-color="#27B7FF"/>
</linearGradient>
<linearGradient id="paint11_linear_736_5607" x1="-164.851" y1="54.2654" x2="120.267" y2="54.2654" gradientUnits="userSpaceOnUse">
<stop offset="0.0101" stop-color="#F408AB"/>
<stop offset="1" stop-color="#27B7FF"/>
</linearGradient>
</defs>
</svg>
