<svg width="60" height="60" viewBox="0 0 60 60" fill="none" xmlns="http://www.w3.org/2000/svg">
<path d="M25.3139 6.45038C26.5226 6.1871 27.7791 6.03152 29.0477 5.95971V0C27.2406 0.071804 25.4814 0.311135 23.7701 0.69409L25.3139 6.45038Z" fill="url(#paint0_linear_736_5582)"/>
<path d="M14.3992 12.0272C15.3326 11.1895 16.3259 10.4235 17.391 9.72943L14.4112 4.55957C12.9033 5.51696 11.4911 6.60598 10.1867 7.80271L14.3992 12.0272Z" fill="url(#paint1_linear_736_5582)"/>
<path d="M19.4854 8.52052C20.5984 7.94609 21.7592 7.46738 22.9679 7.08443L21.4241 1.31616C19.7128 1.85469 18.0733 2.53686 16.5056 3.3626L19.4854 8.52052Z" fill="url(#paint2_linear_736_5582)"/>
<path d="M10.4021 16.7302C11.0842 15.6771 11.8501 14.6718 12.6998 13.7384L8.48728 9.52588C7.29055 10.8303 6.20153 12.2425 5.24414 13.7503L10.4021 16.7302Z" fill="url(#paint3_linear_736_5582)"/>
<path d="M6.63242 28.3865C6.69225 27.106 6.8598 25.8613 7.12308 24.6526L1.36679 23.1089C0.98384 24.8202 0.75644 26.5794 0.672668 28.3865H6.63242Z" fill="url(#paint4_linear_736_5582)"/>
<path d="M7.74537 22.3071C8.1403 21.0984 8.619 19.9375 9.18147 18.8246L4.02355 15.8447C3.1978 17.4124 2.51567 19.052 1.97714 20.7633L7.74537 22.3071Z" fill="url(#paint5_linear_736_5582)"/>
<path opacity="0.43" d="M56.4883 15.8447L51.3304 18.8246C51.9048 19.9375 52.3835 21.0984 52.7664 22.3071L58.5347 20.7633C57.9961 19.052 57.314 17.4005 56.4883 15.8447Z" fill="#406EB2"/>
<path opacity="0.43" d="M47.8123 13.7384C48.65 14.6718 49.4159 15.6651 50.11 16.7302L55.2799 13.7503C54.3225 12.2425 53.2335 10.8303 52.0368 9.52588L47.8123 13.7384Z" fill="#406EB2"/>
<path opacity="0.43" d="M37.5441 7.08443C38.7528 7.47935 39.9136 7.95806 41.0266 8.52052L44.0065 3.3626C42.4388 2.53686 40.7992 1.85469 39.0879 1.31616L37.5441 7.08443Z" fill="#406EB2"/>
<path opacity="0.43" d="M43.1212 9.72921C44.1744 10.4113 45.1796 11.1773 46.1131 12.027L50.3256 7.81446C49.0212 6.61773 47.609 5.52868 46.1011 4.57129L43.1212 9.72921Z" fill="#406EB2"/>
<path opacity="0.43" d="M31.4646 5.95971C32.7452 6.01955 33.9897 6.1871 35.1984 6.45038L36.7422 0.69409C35.0309 0.311135 33.2717 0.0837714 31.4646 0V5.95971Z" fill="#406EB2"/>
<path d="M7.11142 34.5378C6.84814 33.3291 6.69256 32.0725 6.62075 30.804H0.661041C0.732845 32.611 0.972176 34.3702 1.35513 36.0816L7.11142 34.5378Z" fill="url(#paint6_linear_736_5582)"/>
<path d="M9.18147 40.3538C8.60704 39.2409 8.12833 38.08 7.74537 36.8713L1.97714 38.4151C2.51567 40.1264 3.1978 41.766 4.02355 43.3337L9.18147 40.3538Z" fill="url(#paint7_linear_736_5582)"/>
<path d="M46.101 47.1514C45.1676 47.9891 44.1743 48.755 43.1092 49.4491L46.089 54.619C47.5969 53.6616 49.0091 52.5726 50.3135 51.3758L46.101 47.1514Z" fill="url(#paint8_linear_736_5582)"/>
<path d="M52.7664 36.8833C52.3715 38.092 51.8928 39.2528 51.3304 40.3658L56.4883 43.3457C57.314 41.778 57.9961 40.1384 58.5347 38.4271L52.7664 36.8833Z" fill="url(#paint9_linear_736_5582)"/>
<path d="M41.0266 50.6577C39.9136 51.2321 38.7528 51.7109 37.5441 52.0938L39.0879 57.862C40.7992 57.3235 42.4388 56.6414 44.0065 55.8156L41.0266 50.6577Z" fill="url(#paint10_linear_736_5582)"/>
<path opacity="0.43" d="M53.3892 24.6407C53.6525 25.8494 53.8081 27.106 53.8799 28.3745H59.8396C59.7678 26.5675 59.5285 24.8083 59.1455 23.0969L53.3892 24.6407Z" fill="#406EB2"/>
<path d="M53.8799 30.804C53.8201 32.0845 53.6525 33.3291 53.3892 34.5378L59.1455 36.0816C59.5285 34.3702 59.7558 32.611 59.8396 30.804H53.8799Z" fill="url(#paint11_linear_736_5582)"/>
<path d="M50.11 42.4602C49.4279 43.5133 48.662 44.5186 47.8123 45.452L52.0248 49.6646C53.2215 48.3601 54.3106 46.948 55.268 45.4401L50.11 42.4602Z" fill="url(#paint12_linear_736_5582)"/>
<path d="M17.391 49.4491C16.3379 48.7669 15.3326 48.001 14.3992 47.1514L10.1867 51.3639C11.4911 52.5606 12.9033 53.6496 14.4112 54.607L17.391 49.4491Z" fill="url(#paint13_linear_736_5582)"/>
<path d="M12.6883 45.4398C11.8506 44.5064 11.0847 43.5131 10.3906 42.448L5.22069 45.4279C6.17808 46.9357 7.26709 48.3479 8.46383 49.6523L12.6883 45.4398Z" fill="url(#paint14_linear_736_5582)"/>
<path d="M29.0477 53.2189C27.7672 53.1591 26.5226 52.9916 25.3139 52.7283L23.7701 58.4846C25.4814 58.8675 27.2406 59.0949 29.0477 59.1786V53.2189Z" fill="url(#paint15_linear_736_5582)"/>
<path d="M22.9679 52.1057C21.7592 51.7108 20.5984 51.2321 19.4854 50.6697L16.5056 55.8276C18.0733 56.6533 19.7128 57.3355 21.4241 57.874L22.9679 52.1057Z" fill="url(#paint16_linear_736_5582)"/>
<path d="M35.1984 52.7283C33.9897 52.9916 32.7332 53.1471 31.4646 53.2189V59.1786C33.2717 59.1068 35.0309 58.8675 36.7422 58.4846L35.1984 52.7283Z" fill="url(#paint17_linear_736_5582)"/>
<defs>
<linearGradient id="paint0_linear_736_5582" x1="-82.8542" y1="3.22854" x2="202.271" y2="3.22854" gradientUnits="userSpaceOnUse">
<stop offset="0.0101" stop-color="#F408AB"/>
<stop offset="1" stop-color="#27B7FF"/>
</linearGradient>
<linearGradient id="paint1_linear_736_5582" x1="-82.8543" y1="8.29936" x2="202.269" y2="8.29936" gradientUnits="userSpaceOnUse">
<stop offset="0.0101" stop-color="#F408AB"/>
<stop offset="1" stop-color="#27B7FF"/>
</linearGradient>
<linearGradient id="paint2_linear_736_5582" x1="-82.854" y1="4.9181" x2="202.269" y2="4.9181" gradientUnits="userSpaceOnUse">
<stop offset="0.0101" stop-color="#F408AB"/>
<stop offset="1" stop-color="#27B7FF"/>
</linearGradient>
<linearGradient id="paint3_linear_736_5582" x1="-82.8528" y1="13.1273" x2="202.266" y2="13.1273" gradientUnits="userSpaceOnUse">
<stop offset="0.0101" stop-color="#F408AB"/>
<stop offset="1" stop-color="#27B7FF"/>
</linearGradient>
<linearGradient id="paint4_linear_736_5582" x1="-82.8528" y1="25.7413" x2="202.266" y2="25.7413" gradientUnits="userSpaceOnUse">
<stop offset="0.0101" stop-color="#F408AB"/>
<stop offset="1" stop-color="#27B7FF"/>
</linearGradient>
<linearGradient id="paint5_linear_736_5582" x1="-82.854" y1="19.0747" x2="202.271" y2="19.0747" gradientUnits="userSpaceOnUse">
<stop offset="0.0101" stop-color="#F408AB"/>
<stop offset="1" stop-color="#27B7FF"/>
</linearGradient>
<linearGradient id="paint6_linear_736_5582" x1="-82.852" y1="33.4424" x2="202.266" y2="33.4424" gradientUnits="userSpaceOnUse">
<stop offset="0.0101" stop-color="#F408AB"/>
<stop offset="1" stop-color="#27B7FF"/>
</linearGradient>
<linearGradient id="paint7_linear_736_5582" x1="-82.854" y1="40.109" x2="202.271" y2="40.109" gradientUnits="userSpaceOnUse">
<stop offset="0.0101" stop-color="#F408AB"/>
<stop offset="1" stop-color="#27B7FF"/>
</linearGradient>
<linearGradient id="paint8_linear_736_5582" x1="-82.8516" y1="50.8845" x2="202.267" y2="50.8845" gradientUnits="userSpaceOnUse">
<stop offset="0.0101" stop-color="#F408AB"/>
<stop offset="1" stop-color="#27B7FF"/>
</linearGradient>
<linearGradient id="paint9_linear_736_5582" x1="-82.8527" y1="40.109" x2="202.267" y2="40.109" gradientUnits="userSpaceOnUse">
<stop offset="0.0101" stop-color="#F408AB"/>
<stop offset="1" stop-color="#27B7FF"/>
</linearGradient>
<linearGradient id="paint10_linear_736_5582" x1="-82.855" y1="54.2654" x2="202.27" y2="54.2654" gradientUnits="userSpaceOnUse">
<stop offset="0.0101" stop-color="#F408AB"/>
<stop offset="1" stop-color="#27B7FF"/>
</linearGradient>
<linearGradient id="paint11_linear_736_5582" x1="-82.8532" y1="33.4424" x2="202.269" y2="33.4424" gradientUnits="userSpaceOnUse">
<stop offset="0.0101" stop-color="#F408AB"/>
<stop offset="1" stop-color="#27B7FF"/>
</linearGradient>
<linearGradient id="paint12_linear_736_5582" x1="-82.854" y1="46.0565" x2="202.269" y2="46.0565" gradientUnits="userSpaceOnUse">
<stop offset="0.0101" stop-color="#F408AB"/>
<stop offset="1" stop-color="#27B7FF"/>
</linearGradient>
<linearGradient id="paint13_linear_736_5582" x1="-82.8543" y1="50.8844" x2="202.269" y2="50.8844" gradientUnits="userSpaceOnUse">
<stop offset="0.0101" stop-color="#F408AB"/>
<stop offset="1" stop-color="#27B7FF"/>
</linearGradient>
<linearGradient id="paint14_linear_736_5582" x1="-82.852" y1="46.0563" x2="202.266" y2="46.0563" gradientUnits="userSpaceOnUse">
<stop offset="0.0101" stop-color="#F408AB"/>
<stop offset="1" stop-color="#27B7FF"/>
</linearGradient>
<linearGradient id="paint15_linear_736_5582" x1="-82.8542" y1="55.9554" x2="202.271" y2="55.9554" gradientUnits="userSpaceOnUse">
<stop offset="0.0101" stop-color="#F408AB"/>
<stop offset="1" stop-color="#27B7FF"/>
</linearGradient>
<linearGradient id="paint16_linear_736_5582" x1="-82.854" y1="54.2654" x2="202.269" y2="54.2654" gradientUnits="userSpaceOnUse">
<stop offset="0.0101" stop-color="#F408AB"/>
<stop offset="1" stop-color="#27B7FF"/>
</linearGradient>
<linearGradient id="paint17_linear_736_5582" x1="-82.8545" y1="55.9554" x2="202.27" y2="55.9554" gradientUnits="userSpaceOnUse">
<stop offset="0.0101" stop-color="#F408AB"/>
<stop offset="1" stop-color="#27B7FF"/>
</linearGradient>
</defs>
</svg>
