<svg width="91" height="56" viewBox="0 0 91 56" fill="none" xmlns="http://www.w3.org/2000/svg">
<rect width="90.9454" height="55.1761" rx="6.94141" fill="black"/>
<rect x="0.144613" y="0.144613" width="90.6562" height="54.8869" rx="6.7968" stroke="white" stroke-opacity="0.5" stroke-width="0.289226"/>
<path d="M79.9597 23.5129V43.597H11.2026V18.5584C14.3267 18.5584 14.3267 23.509 17.4508 23.509C20.5788 23.509 20.5788 13.2539 23.7029 13.2539C26.827 13.2539 26.827 30.408 29.9549 30.408C33.079 30.408 33.079 18.5584 36.2031 18.5584C39.3272 18.5584 39.3272 26.5152 42.4513 26.5152C45.5793 26.5152 45.5792 23.1552 48.7034 23.1552C51.8275 23.1552 51.8275 27.9307 54.9554 27.9307C58.0795 27.9307 58.0795 23.0676 61.2074 23.0676C64.3315 23.0676 64.3315 34.2969 67.4556 34.2969C70.5835 34.2969 70.5835 13.8704 73.7076 13.8704C76.8317 13.8742 76.8318 23.5129 79.9597 23.5129Z" fill="url(#paint0_linear_736_5539)"/>
<path d="M67.4556 34.4757C65.7584 34.4757 64.9822 31.6865 64.1602 28.7336C63.4106 26.0357 62.6343 23.2502 61.2074 23.2502C59.7385 23.2502 59.0079 24.3918 58.2278 25.6019C57.4325 26.8386 56.6144 28.1134 54.9553 28.1134C53.2962 28.1134 52.4743 26.8576 51.6828 25.6437C50.9065 24.4565 50.1721 23.3378 48.7071 23.3378C47.2231 23.3378 46.4887 24.1254 45.7124 24.9626C44.9171 25.815 44.0951 26.6978 42.4551 26.6978C40.7732 26.6978 39.955 24.6163 39.1674 22.6072C38.4215 20.7045 37.6491 18.741 36.2069 18.741C34.7799 18.741 34.0036 21.6863 33.254 24.5326C32.4321 27.6453 31.6558 30.5868 29.9587 30.5868C28.2463 30.5868 27.4738 26.3477 26.6595 21.8613C25.9403 17.9115 25.1222 13.4327 23.7104 13.4327C22.2797 13.4327 21.5034 15.9746 20.7538 18.4366C19.9318 21.1383 19.1518 23.6917 17.4584 23.6917C15.7993 23.6917 14.9774 22.3903 14.1859 21.1345C13.4096 19.9054 12.6752 18.741 11.2102 18.741C11.1112 18.741 11.0352 18.6611 11.0352 18.566C11.0352 18.467 11.1151 18.3909 11.2102 18.3909C12.8693 18.3909 13.6912 19.6923 14.4827 20.9481C15.259 22.1772 15.9934 23.3416 17.4584 23.3416C18.8892 23.3416 19.6654 20.7959 20.4151 18.3377C21.237 15.6359 22.0171 13.0864 23.7104 13.0864C25.419 13.0864 26.1915 17.3217 27.0096 21.8081C27.7288 25.7617 28.5469 30.2405 29.9625 30.2405C31.3894 30.2405 32.1657 27.2952 32.9153 24.4489C33.7373 21.3362 34.5135 18.3947 36.2107 18.3947C37.8926 18.3947 38.7107 20.4762 39.4984 22.4854C40.2442 24.388 41.0167 26.3515 42.4589 26.3515C43.9467 26.3515 44.6773 25.5638 45.4574 24.7267C46.2527 23.8743 47.0708 22.9915 48.7109 22.9915C50.37 22.9915 51.1881 24.2472 51.9834 25.4573C52.7597 26.6445 53.4941 27.7633 54.9629 27.7633C56.428 27.7633 57.1624 26.6217 57.9386 25.4154C58.7339 24.1787 59.5559 22.904 61.215 22.904C62.9121 22.904 63.6884 25.6932 64.5103 28.6461C65.2599 31.344 66.0362 34.1332 67.4632 34.1332C68.8749 34.1332 69.6931 28.7869 70.4161 24.0722C71.375 17.8125 72.1208 13.7105 73.719 13.7105C75.4085 13.7105 76.2229 16.2219 77.0106 18.6497C77.7602 20.9595 78.5326 23.3454 79.9672 23.3454C80.0662 23.3454 80.1423 23.4253 80.1423 23.5204C80.1423 23.6194 80.0624 23.6955 79.9672 23.6955C78.2739 23.6955 77.4596 21.184 76.6719 18.7524C75.9223 16.4427 75.1498 14.0568 73.7152 14.0568C72.3035 14.0568 71.4853 19.4031 70.7623 24.1178C69.7996 30.3737 69.05 34.4757 67.4556 34.4757Z" fill="white"/>
<path d="M25.069 13.2119C25.069 13.992 24.4373 14.6275 23.6534 14.6275C22.8733 14.6275 22.2379 13.9958 22.2379 13.2119C22.2379 12.4319 22.8695 11.7964 23.6534 11.7964C24.4335 11.7964 25.069 12.4319 25.069 13.2119Z" fill="#018DCE"/>
<path d="M18.524 23.3377C18.524 24.1177 17.8923 24.7532 17.1084 24.7532C16.3283 24.7532 15.6928 24.1216 15.6928 23.3377C15.6928 22.5576 16.3245 21.9221 17.1084 21.9221C17.8923 21.9221 18.524 22.5538 18.524 23.3377Z" fill="#018DCE"/>
<path d="M31.2488 30.3164C31.2488 31.0965 30.6171 31.732 29.8332 31.732C29.0532 31.732 28.4177 31.1003 28.4177 30.3164C28.4177 29.5364 29.0494 28.9009 29.8332 28.9009C30.6171 28.9047 31.2488 29.5364 31.2488 30.3164Z" fill="#018DCE"/>
<path d="M37.5121 18.6612C37.5121 19.4412 36.8805 20.0767 36.0966 20.0767C35.3165 20.0767 34.681 19.445 34.681 18.6612C34.681 17.8811 35.3127 17.2456 36.0966 17.2456C36.8766 17.2494 37.5121 17.8811 37.5121 18.6612Z" fill="#018DCE"/>
<path d="M44.0154 26.378C44.0154 27.158 43.3837 27.7935 42.5998 27.7935C41.8198 27.7935 41.1843 27.1618 41.1843 26.378C41.1843 25.5979 41.816 24.9624 42.5998 24.9624C43.3799 24.9624 44.0154 25.5941 44.0154 26.378Z" fill="#018DCE"/>
<path d="M50.1228 23.3948C50.1228 24.1749 49.4912 24.8104 48.7073 24.8104C47.9272 24.8104 47.2917 24.1787 47.2917 23.3948C47.2917 22.6147 47.9234 21.9792 48.7073 21.9792C49.4912 21.9792 50.1228 22.6147 50.1228 23.3948Z" fill="#018DCE"/>
<path d="M56.1387 27.7783C56.1387 28.5584 55.507 29.1939 54.7232 29.1939C53.9431 29.1939 53.3076 28.5622 53.3076 27.7783C53.3076 26.9983 53.9393 26.3628 54.7232 26.3628C55.507 26.3628 56.1387 26.9983 56.1387 27.7783Z" fill="#018DCE"/>
<path d="M62.7371 23.0181C62.7371 23.7982 62.1054 24.4336 61.3215 24.4336C60.5414 24.4336 59.906 23.802 59.906 23.0181C59.906 22.238 60.5376 21.6025 61.3215 21.6025C62.1054 21.6025 62.7371 22.238 62.7371 23.0181Z" fill="#018DCE"/>
<path d="M68.7114 34.1485C68.7114 34.9285 68.0798 35.564 67.2959 35.564C66.5158 35.564 65.8803 34.9323 65.8803 34.1485C65.8803 33.3684 66.512 32.7329 67.2959 32.7329C68.076 32.7329 68.7114 33.3646 68.7114 34.1485Z" fill="#018DCE"/>
<path d="M75.2678 14.0073C75.2678 14.7874 74.6362 15.4229 73.8523 15.4229C73.0722 15.4229 72.4367 14.7912 72.4367 14.0073C72.4367 13.2273 73.0684 12.5918 73.8523 12.5918C74.6324 12.5918 75.2678 13.2235 75.2678 14.0073Z" fill="#018DCE"/>
<defs>
<linearGradient id="paint0_linear_736_5539" x1="45.5811" y1="44.246" x2="45.5811" y2="12.8404" gradientUnits="userSpaceOnUse">
<stop offset="0.0101" stop-opacity="0"/>
<stop offset="1" stop-color="#0198CE"/>
</linearGradient>
</defs>
</svg>
