<svg width="91" height="56" viewBox="0 0 91 56" fill="none" xmlns="http://www.w3.org/2000/svg">
<rect width="91" height="56" fill="#555555"/>
<g clip-path="url(#clip0_1_1094)">
<rect width="375" height="9595" transform="translate(-134 -4291)" fill="black"/>
<rect width="90.9454" height="55.1761" rx="6.94141" fill="black"/>
<rect x="0.144613" y="0.144613" width="90.6562" height="54.8869" rx="6.7968" stroke="white" stroke-opacity="0.5" stroke-width="0.289226"/>
<path d="M13.0977 12.938H11.7202V39.2817H13.0977V12.938Z" fill="#406EB2"/>
<path d="M16.1495 12.938H14.772V39.2817H16.1495V12.938Z" fill="#406EB2"/>
<path d="M22.2493 12.938H20.8718V39.2817H22.2493V12.938Z" fill="#406EB2"/>
<path d="M25.2973 12.938H23.9198V39.2817H25.2973V12.938Z" fill="#406EB2"/>
<path d="M31.3971 12.938H30.0196V39.2817H31.3971V12.938Z" fill="#406EB2"/>
<path d="M34.4489 12.938H33.0714V39.2817H34.4489V12.938Z" fill="#406EB2"/>
<path d="M40.5488 12.938H39.1713V39.2817H40.5488V12.938Z" fill="#406EB2"/>
<path d="M43.5967 12.938H42.2192V39.2817H43.5967V12.938Z" fill="#406EB2"/>
<path d="M49.6965 12.938H48.319V39.2817H49.6965V12.938Z" fill="#406EB2"/>
<path d="M52.7445 12.938H51.367V39.2817H52.7445V12.938Z" fill="#406EB2"/>
<path d="M58.8443 12.938H57.4668V39.2817H58.8443V12.938Z" fill="#406EB2"/>
<path d="M61.8961 12.938H60.5186V39.2817H61.8961V12.938Z" fill="#406EB2"/>
<path d="M67.996 12.938H66.6185V39.2817H67.996V12.938Z" fill="#406EB2"/>
<path d="M71.0439 12.938H69.6664V39.2817H71.0439V12.938Z" fill="#406EB2"/>
<path d="M77.1438 12.938H75.7663V39.2817H77.1438V12.938Z" fill="#406EB2"/>
<path d="M80.1956 12.938H78.8181V39.2817H80.1956V12.938Z" fill="#406EB2"/>
<path d="M13.0977 22.8657H11.7202V39.2854H13.0977V22.8657Z" fill="url(#paint0_linear_1_1094)"/>
<path d="M16.1496 29.5137H14.7721V39.2817H16.1496V29.5137Z" fill="url(#paint1_linear_1_1094)"/>
<path d="M22.2493 27.71H20.8718V39.2817H22.2493V27.71Z" fill="url(#paint2_linear_1_1094)"/>
<path d="M25.2973 24.5554H23.9198V39.2817H25.2973V24.5554Z" fill="url(#paint3_linear_1_1094)"/>
<path d="M31.3972 26.1345H30.0197V39.2855H31.3972V26.1345Z" fill="url(#paint4_linear_1_1094)"/>
<path d="M34.449 29.8142H33.0715V39.2817H34.449V29.8142Z" fill="url(#paint5_linear_1_1094)"/>
<path d="M40.5488 28.8401H39.1713V39.2855H40.5488V28.8401Z" fill="url(#paint6_linear_1_1094)"/>
<path d="M43.5967 25.3811H42.2192V39.2817H43.5967V25.3811Z" fill="url(#paint7_linear_1_1094)"/>
<path d="M49.6966 21.7395H48.3191V39.2855H49.6966V21.7395Z" fill="url(#paint8_linear_1_1094)"/>
<path d="M52.7446 28.311H51.3671V39.2816H52.7446V28.311Z" fill="url(#paint9_linear_1_1094)"/>
<path d="M58.8443 23.0903H57.4668V39.2817H58.8443V23.0903Z" fill="url(#paint10_linear_1_1094)"/>
<path d="M61.8962 31.6941H60.5187V39.2818H61.8962V31.6941Z" fill="url(#paint11_linear_1_1094)"/>
<path d="M67.996 27.5996H66.6185V39.2855H67.996V27.5996Z" fill="url(#paint12_linear_1_1094)"/>
<path d="M71.044 25.3811H69.6665V39.2817H71.044V25.3811Z" fill="url(#paint13_linear_1_1094)"/>
<path d="M77.1439 22.4131H75.7664V39.2818H77.1439V22.4131Z" fill="url(#paint14_linear_1_1094)"/>
<path d="M80.1956 26.6978H78.8181V39.2855H80.1956V26.6978Z" fill="url(#paint15_linear_1_1094)"/>
<path d="M81.809 39.4532H9.13253V12.9458H9.41031V39.1754H81.809V39.4532Z" fill="white"/>
<path d="M11.4976 41.9731V40.7998H11.8288C11.9309 40.7998 12.0212 40.8224 12.0996 40.8675C12.178 40.9127 12.2385 40.9768 12.2809 41.0601C12.3239 41.1434 12.3457 41.239 12.3462 41.347V41.4219C12.3462 41.5326 12.3247 41.6296 12.2817 41.7129C12.2393 41.7961 12.1783 41.8601 12.0988 41.9046C12.0198 41.9492 11.9277 41.9721 11.8224 41.9731H11.4976ZM11.6524 40.9272V41.8466H11.8151C11.9344 41.8466 12.0271 41.8096 12.0932 41.7354C12.1598 41.6613 12.1931 41.5557 12.1931 41.4187V41.3502C12.1931 41.217 12.1617 41.1136 12.0988 41.04C12.0365 40.9658 11.9478 40.9282 11.8329 40.9272H11.6524ZM13.2109 41.6669H12.7193L12.6089 41.9731H12.4493L12.8974 40.7998H13.0328L13.4816 41.9731H13.3229L13.2109 41.6669ZM12.766 41.5396H13.1649L12.9651 40.9908L12.766 41.5396ZM14.3455 40.9272H13.9684V41.9731H13.8144V40.9272H13.4381V40.7998H14.3455V40.9272ZM15.103 41.6669H14.6114L14.501 41.9731H14.3415L14.7895 40.7998H14.9249L15.3738 41.9731H15.215L15.103 41.6669ZM14.6582 41.5396H15.0571L14.8572 40.9908L14.6582 41.5396ZM16.6381 41.4727C16.6381 41.6473 16.6083 41.7771 16.5487 41.8619C16.4891 41.9468 16.3958 41.9893 16.2691 41.9893C16.1439 41.9893 16.0512 41.9479 15.991 41.8652C15.9309 41.7819 15.8997 41.6578 15.8976 41.4929V41.2938C15.8976 41.1214 15.9274 40.9932 15.987 40.9094C16.0466 40.8256 16.1401 40.7837 16.2674 40.7837C16.3937 40.7837 16.4866 40.8243 16.5463 40.9054C16.6059 40.986 16.6365 41.1106 16.6381 41.2793V41.4727ZM16.4891 41.2688C16.4891 41.1426 16.4713 41.0507 16.4359 40.9932C16.4004 40.9352 16.3443 40.9062 16.2674 40.9062C16.1912 40.9062 16.1356 40.9349 16.1006 40.9924C16.0657 41.0499 16.0477 41.1383 16.0466 41.2576V41.4961C16.0466 41.6229 16.0649 41.7166 16.1014 41.7773C16.1385 41.8375 16.1944 41.8676 16.2691 41.8676C16.3427 41.8676 16.3972 41.8391 16.4326 41.7822C16.4686 41.7252 16.4874 41.6355 16.4891 41.513V41.2688ZM17.3191 41.9731H17.1692V40.9795L16.8686 41.0899V40.9546L17.2957 40.7942H17.3191V41.9731Z" fill="#F5F7F6"/>
<path d="M20.2906 41.9731V40.7998H20.6218C20.7239 40.7998 20.8141 40.8224 20.8926 40.8675C20.971 40.9127 21.0314 40.9768 21.0739 41.0601C21.1169 41.1434 21.1386 41.239 21.1392 41.347V41.4219C21.1392 41.5326 21.1177 41.6296 21.0747 41.7129C21.0323 41.7961 20.9713 41.8601 20.8918 41.9046C20.8128 41.9492 20.7207 41.9721 20.6154 41.9731H20.2906ZM20.4453 40.9272V41.8466H20.6081C20.7274 41.8466 20.82 41.8096 20.8861 41.7354C20.9527 41.6613 20.9861 41.5557 20.9861 41.4187V41.3502C20.9861 41.217 20.9546 41.1136 20.8918 41.04C20.8294 40.9658 20.7408 40.9282 20.6258 40.9272H20.4453ZM22.0038 41.6669H21.5123L21.4019 41.9731H21.2423L21.6904 40.7998H21.8257L22.2746 41.9731H22.1159L22.0038 41.6669ZM21.559 41.5396H21.9579L21.7581 40.9908L21.559 41.5396ZM23.1385 40.9272H22.7613V41.9731H22.6074V40.9272H22.2311V40.7998H23.1385V40.9272ZM23.896 41.6669H23.4044L23.294 41.9731H23.1344L23.5825 40.7998H23.7179L24.1667 41.9731H24.008L23.896 41.6669ZM23.4511 41.5396H23.85L23.6502 40.9908L23.4511 41.5396ZM25.4311 41.4727C25.4311 41.6473 25.4013 41.7771 25.3417 41.8619C25.282 41.9468 25.1888 41.9893 25.062 41.9893C24.9369 41.9893 24.8442 41.9479 24.784 41.8652C24.7238 41.7819 24.6927 41.6578 24.6905 41.4929V41.2938C24.6905 41.1214 24.7203 40.9932 24.78 40.9094C24.8396 40.8256 24.9331 40.7837 25.0604 40.7837C25.1867 40.7837 25.2796 40.8243 25.3392 40.9054C25.3989 40.986 25.4295 41.1106 25.4311 41.2793V41.4727ZM25.282 41.2688C25.282 41.1426 25.2643 41.0507 25.2288 40.9932C25.1934 40.9352 25.1372 40.9062 25.0604 40.9062C24.9841 40.9062 24.9285 40.9349 24.8936 40.9924C24.8587 41.0499 24.8407 41.1383 24.8396 41.2576V41.4961C24.8396 41.6229 24.8579 41.7166 24.8944 41.7773C24.9315 41.8375 24.9874 41.8676 25.062 41.8676C25.1356 41.8676 25.1902 41.8391 25.2256 41.7822C25.2616 41.7252 25.2804 41.6355 25.282 41.513V41.2688ZM26.3909 41.9731H25.6221V41.866L26.0282 41.4147C26.0884 41.3465 26.1298 41.2911 26.1523 41.2487C26.1754 41.2057 26.187 41.1614 26.187 41.1157C26.187 41.0545 26.1685 41.0042 26.1314 40.965C26.0943 40.9258 26.0449 40.9062 25.9831 40.9062C25.909 40.9062 25.8512 40.9274 25.8099 40.9699C25.769 41.0118 25.7486 41.0703 25.7486 41.1455H25.5995C25.5995 41.0376 25.6342 40.9503 25.7035 40.8836C25.7733 40.817 25.8665 40.7837 25.9831 40.7837C26.0922 40.7837 26.1784 40.8125 26.2418 40.8699C26.3052 40.9269 26.3369 41.0029 26.3369 41.098C26.3369 41.2135 26.2633 41.351 26.1161 41.5106L25.8018 41.8515H26.3909V41.9731Z" fill="#F5F7F6"/>
<path d="M29.1314 41.9731V40.7998H29.4626C29.5647 40.7998 29.655 40.8224 29.7334 40.8675C29.8118 40.9127 29.8723 40.9768 29.9147 41.0601C29.9577 41.1434 29.9794 41.239 29.98 41.347V41.4219C29.98 41.5326 29.9585 41.6296 29.9155 41.7129C29.8731 41.7961 29.8121 41.8601 29.7326 41.9046C29.6536 41.9492 29.5615 41.9721 29.4562 41.9731H29.1314ZM29.2861 40.9272V41.8466H29.4489C29.5682 41.8466 29.6609 41.8096 29.7269 41.7354C29.7936 41.6613 29.8269 41.5557 29.8269 41.4187V41.3502C29.8269 41.217 29.7954 41.1136 29.7326 41.04C29.6703 40.9658 29.5816 40.9282 29.4667 40.9272H29.2861ZM30.8447 41.6669H30.3531L30.2427 41.9731H30.0831L30.5312 40.7998H30.6666L31.1154 41.9731H30.9567L30.8447 41.6669ZM30.3998 41.5396H30.7987L30.5989 40.9908L30.3998 41.5396ZM31.9793 40.9272H31.6022V41.9731H31.4482V40.9272H31.0719V40.7998H31.9793V40.9272ZM32.7368 41.6669H32.2452L32.1348 41.9731H31.9753L32.4233 40.7998H32.5587L33.0076 41.9731H32.8488L32.7368 41.6669ZM32.292 41.5396H32.6909L32.491 40.9908L32.292 41.5396ZM34.2719 41.4727C34.2719 41.6473 34.2421 41.7771 34.1825 41.8619C34.1228 41.9468 34.0296 41.9893 33.9028 41.9893C33.7777 41.9893 33.685 41.9479 33.6248 41.8652C33.5647 41.7819 33.5335 41.6578 33.5314 41.4929V41.2938C33.5314 41.1214 33.5612 40.9932 33.6208 40.9094C33.6804 40.8256 33.7739 40.7837 33.9012 40.7837C34.0275 40.7837 34.1204 40.8243 34.1801 40.9054C34.2397 40.986 34.2703 41.1106 34.2719 41.2793V41.4727ZM34.1228 41.2688C34.1228 41.1426 34.1051 41.0507 34.0697 40.9932C34.0342 40.9352 33.9781 40.9062 33.9012 40.9062C33.8249 40.9062 33.7693 40.9349 33.7344 40.9924C33.6995 41.0499 33.6815 41.1383 33.6804 41.2576V41.4961C33.6804 41.6229 33.6987 41.7166 33.7352 41.7773C33.7723 41.8375 33.8282 41.8676 33.9028 41.8676C33.9764 41.8676 34.031 41.8391 34.0664 41.7822C34.1024 41.7252 34.1212 41.6355 34.1228 41.513V41.2688ZM34.6797 41.314H34.7917C34.8621 41.3129 34.9174 41.2944 34.9577 41.2584C34.998 41.2224 35.0181 41.1737 35.0181 41.1125C35.0181 40.975 34.9496 40.9062 34.8126 40.9062C34.7482 40.9062 34.6966 40.9247 34.6579 40.9618C34.6198 40.9983 34.6007 41.047 34.6007 41.1077H34.4516C34.4516 41.0147 34.4855 40.9376 34.5532 40.8764C34.6214 40.8146 34.7079 40.7837 34.8126 40.7837C34.9233 40.7837 35.0101 40.813 35.0729 40.8716C35.1358 40.9301 35.1672 41.0115 35.1672 41.1157C35.1672 41.1668 35.1506 41.2162 35.1173 41.264C35.0845 41.3118 35.0396 41.3475 34.9827 41.3712C35.0471 41.3916 35.0968 41.4254 35.1318 41.4727C35.1672 41.52 35.1849 41.5777 35.1849 41.646C35.1849 41.7513 35.1506 41.8348 35.0818 41.8966C35.013 41.9584 34.9236 41.9893 34.8135 41.9893C34.7033 41.9893 34.6136 41.9594 34.5443 41.8998C34.4755 41.8402 34.4412 41.7615 34.4412 41.6637H34.591C34.591 41.7255 34.6112 41.7749 34.6515 41.812C34.6918 41.849 34.7458 41.8676 34.8135 41.8676C34.8854 41.8676 34.9405 41.8488 34.9787 41.8112C35.0168 41.7736 35.0359 41.7196 35.0359 41.6492C35.0359 41.581 35.0149 41.5286 34.973 41.4921C34.9311 41.4555 34.8707 41.4367 34.7917 41.4356H34.6797V41.314Z" fill="#F5F7F6"/>
<path d="M38.4076 41.9731V40.7998H38.7388C38.8408 40.7998 38.9311 40.8224 39.0095 40.8675C39.088 40.9127 39.1484 40.9768 39.1908 41.0601C39.2338 41.1434 39.2556 41.239 39.2561 41.347V41.4219C39.2561 41.5326 39.2346 41.6296 39.1916 41.7129C39.1492 41.7961 39.0882 41.8601 39.0087 41.9046C38.9297 41.9492 38.8376 41.9721 38.7323 41.9731H38.4076ZM38.5623 40.9272V41.8466H38.7251C38.8443 41.8466 38.937 41.8096 39.0031 41.7354C39.0697 41.6613 39.103 41.5557 39.103 41.4187V41.3502C39.103 41.217 39.0716 41.1136 39.0087 41.04C38.9464 40.9658 38.8578 40.9282 38.7428 40.9272H38.5623ZM40.1208 41.6669H39.6292L39.5188 41.9731H39.3593L39.8073 40.7998H39.9427L40.3915 41.9731H40.2328L40.1208 41.6669ZM39.676 41.5396H40.0748L39.875 40.9908L39.676 41.5396ZM41.2554 40.9272H40.8783V41.9731H40.7244V40.9272H40.348V40.7998H41.2554V40.9272ZM42.0129 41.6669H41.5213L41.4109 41.9731H41.2514L41.6994 40.7998H41.8348L42.2837 41.9731H42.1249L42.0129 41.6669ZM41.5681 41.5396H41.967L41.7671 40.9908L41.5681 41.5396ZM43.548 41.4727C43.548 41.6473 43.5182 41.7771 43.4586 41.8619C43.399 41.9468 43.3058 41.9893 43.179 41.9893C43.0538 41.9893 42.9611 41.9479 42.901 41.8652C42.8408 41.7819 42.8096 41.6578 42.8075 41.4929V41.2938C42.8075 41.1214 42.8373 40.9932 42.8969 40.9094C42.9566 40.8256 43.05 40.7837 43.1774 40.7837C43.3036 40.7837 43.3965 40.8243 43.4562 40.9054C43.5158 40.986 43.5464 41.1106 43.548 41.2793V41.4727ZM43.399 41.2688C43.399 41.1426 43.3812 41.0507 43.3458 40.9932C43.3103 40.9352 43.2542 40.9062 43.1774 40.9062C43.1011 40.9062 43.0455 40.9349 43.0105 40.9924C42.9756 41.0499 42.9576 41.1383 42.9566 41.2576V41.4961C42.9566 41.6229 42.9748 41.7166 43.0114 41.7773C43.0484 41.8375 43.1043 41.8676 43.179 41.8676C43.2526 41.8676 43.3071 41.8391 43.3426 41.7822C43.3786 41.7252 43.3974 41.6355 43.399 41.513V41.2688ZM44.3684 41.5791H44.5312V41.7008H44.3684V41.9731H44.2185V41.7008H43.6842V41.6129L44.2096 40.7998H44.3684V41.5791ZM43.8535 41.5791H44.2185V41.0037L44.2008 41.0359L43.8535 41.5791Z" fill="#F5F7F6"/>
<path d="M47.571 41.9731V40.7998H47.9022C48.0043 40.7998 48.0945 40.8224 48.173 40.8675C48.2514 40.9127 48.3118 40.9768 48.3543 41.0601C48.3973 41.1434 48.419 41.239 48.4196 41.347V41.4219C48.4196 41.5326 48.3981 41.6296 48.3551 41.7129C48.3127 41.7961 48.2517 41.8601 48.1722 41.9046C48.0932 41.9492 48.0011 41.9721 47.8958 41.9731H47.571ZM47.7257 40.9272V41.8466H47.8885C48.0078 41.8466 48.1004 41.8096 48.1665 41.7354C48.2331 41.6613 48.2664 41.5557 48.2664 41.4187V41.3502C48.2664 41.217 48.235 41.1136 48.1722 41.04C48.1098 40.9658 48.0212 40.9282 47.9062 40.9272H47.7257ZM49.2842 41.6669H48.7927L48.6823 41.9731H48.5227L48.9708 40.7998H49.1061L49.555 41.9731H49.3962L49.2842 41.6669ZM48.8394 41.5396H49.2383L49.0384 40.9908L48.8394 41.5396ZM50.4189 40.9272H50.0417V41.9731H49.8878V40.9272H49.5115V40.7998H50.4189V40.9272ZM51.1764 41.6669H50.6848L50.5744 41.9731H50.4148L50.8629 40.7998H50.9983L51.4471 41.9731H51.2884L51.1764 41.6669ZM50.7315 41.5396H51.1304L50.9306 40.9908L50.7315 41.5396ZM52.7115 41.4727C52.7115 41.6473 52.6817 41.7771 52.6221 41.8619C52.5624 41.9468 52.4692 41.9893 52.3424 41.9893C52.2172 41.9893 52.1246 41.9479 52.0644 41.8652C52.0042 41.7819 51.9731 41.6578 51.9709 41.4929V41.2938C51.9709 41.1214 52.0007 40.9932 52.0604 40.9094C52.12 40.8256 52.2135 40.7837 52.3408 40.7837C52.4671 40.7837 52.56 40.8243 52.6196 40.9054C52.6793 40.986 52.7099 41.1106 52.7115 41.2793V41.4727ZM52.5624 41.2688C52.5624 41.1426 52.5447 41.0507 52.5092 40.9932C52.4738 40.9352 52.4176 40.9062 52.3408 40.9062C52.2645 40.9062 52.2089 40.9349 52.174 40.9924C52.1391 41.0499 52.1211 41.1383 52.12 41.2576V41.4961C52.12 41.6229 52.1383 41.7166 52.1748 41.7773C52.2119 41.8375 52.2677 41.8676 52.3424 41.8676C52.416 41.8676 52.4706 41.8391 52.506 41.7822C52.542 41.7252 52.5608 41.6355 52.5624 41.513V41.2688ZM52.971 41.3849L53.0306 40.7998H53.6318V40.9376H53.1571L53.1217 41.2576C53.1792 41.2237 53.2444 41.2068 53.3175 41.2068C53.4244 41.2068 53.5093 41.2422 53.5721 41.3132C53.635 41.3835 53.6664 41.4789 53.6664 41.5992C53.6664 41.7201 53.6337 41.8155 53.5681 41.8853C53.5031 41.9546 53.412 41.9893 53.2949 41.9893C53.1912 41.9893 53.1066 41.9605 53.0411 41.903C52.9755 41.8456 52.9382 41.766 52.9291 41.6645H53.0701C53.0792 41.7317 53.1031 41.7824 53.1418 41.8168C53.1805 41.8507 53.2315 41.8676 53.2949 41.8676C53.3642 41.8676 53.4185 41.8439 53.4577 41.7967C53.4975 41.7494 53.5173 41.6841 53.5173 41.6008C53.5173 41.5224 53.4959 41.4596 53.4529 41.4123C53.4104 41.3645 53.3538 41.3406 53.2828 41.3406C53.2178 41.3406 53.1668 41.3548 53.1297 41.3833L53.0902 41.4155L52.971 41.3849Z" fill="#F5F7F6"/>
<path d="M56.653 41.9731V40.7998H56.9842C57.0863 40.7998 57.1766 40.8224 57.255 40.8675C57.3334 40.9127 57.3939 40.9768 57.4363 41.0601C57.4793 41.1434 57.5011 41.239 57.5016 41.347V41.4219C57.5016 41.5326 57.4801 41.6296 57.4371 41.7129C57.3947 41.7961 57.3337 41.8601 57.2542 41.9046C57.1752 41.9492 57.0831 41.9721 56.9778 41.9731H56.653ZM56.8078 40.9272V41.8466H56.9705C57.0898 41.8466 57.1825 41.8096 57.2486 41.7354C57.3152 41.6613 57.3485 41.5557 57.3485 41.4187V41.3502C57.3485 41.217 57.3171 41.1136 57.2542 41.04C57.1919 40.9658 57.1032 40.9282 56.9883 40.9272H56.8078ZM58.3663 41.6669H57.8747L57.7643 41.9731H57.6047L58.0528 40.7998H58.1882L58.637 41.9731H58.4783L58.3663 41.6669ZM57.9214 41.5396H58.3203L58.1205 40.9908L57.9214 41.5396ZM59.5009 40.9272H59.1238V41.9731H58.9698V40.9272H58.5935V40.7998H59.5009V40.9272ZM60.2584 41.6669H59.7668L59.6564 41.9731H59.4969L59.9449 40.7998H60.0803L60.5292 41.9731H60.3704L60.2584 41.6669ZM59.8136 41.5396H60.2125L60.0126 40.9908L59.8136 41.5396ZM61.7935 41.4727C61.7935 41.6473 61.7637 41.7771 61.7041 41.8619C61.6444 41.9468 61.5512 41.9893 61.4245 41.9893C61.2993 41.9893 61.2066 41.9479 61.1464 41.8652C61.0863 41.7819 61.0551 41.6578 61.053 41.4929V41.2938C61.053 41.1214 61.0828 40.9932 61.1424 40.9094C61.202 40.8256 61.2955 40.7837 61.4228 40.7837C61.5491 40.7837 61.642 40.8243 61.7017 40.9054C61.7613 40.986 61.7919 41.1106 61.7935 41.2793V41.4727ZM61.6444 41.2688C61.6444 41.1426 61.6267 41.0507 61.5913 40.9932C61.5558 40.9352 61.4997 40.9062 61.4228 40.9062C61.3466 40.9062 61.291 40.9349 61.256 40.9924C61.2211 41.0499 61.2031 41.1383 61.202 41.2576V41.4961C61.202 41.6229 61.2203 41.7166 61.2568 41.7773C61.2939 41.8375 61.3498 41.8676 61.4245 41.8676C61.4981 41.8676 61.5526 41.8391 61.588 41.7822C61.624 41.7252 61.6428 41.6355 61.6444 41.513V41.2688ZM62.5696 40.799V40.9255H62.5422C62.4261 40.9277 62.3337 40.9621 62.265 41.0287C62.1962 41.0953 62.1564 41.1891 62.1457 41.3099C62.2075 41.239 62.2918 41.2036 62.3987 41.2036C62.5008 41.2036 62.5822 41.2396 62.6429 41.3115C62.7041 41.3835 62.7348 41.4765 62.7348 41.5904C62.7348 41.7112 62.7017 41.8079 62.6356 41.8805C62.5701 41.953 62.482 41.9893 62.3713 41.9893C62.259 41.9893 62.168 41.9463 62.0981 41.8603C62.0283 41.7738 61.9934 41.6626 61.9934 41.5267V41.4695C61.9934 41.2535 62.0393 41.0886 62.1312 40.9747C62.2236 40.8603 62.3608 40.8017 62.543 40.799H62.5696ZM62.3737 41.3277C62.3227 41.3277 62.2757 41.343 62.2327 41.3736C62.1897 41.4042 62.1599 41.4426 62.1433 41.4888V41.5436C62.1433 41.6403 62.165 41.7182 62.2085 41.7773C62.2521 41.8364 62.3063 41.866 62.3713 41.866C62.4385 41.866 62.4911 41.8413 62.5293 41.7918C62.5679 41.7424 62.5873 41.6777 62.5873 41.5976C62.5873 41.517 62.5677 41.452 62.5285 41.4026C62.4898 41.3526 62.4382 41.3277 62.3737 41.3277Z" fill="#F5F7F6"/>
<path d="M65.6875 41.9731V40.7998H66.0187C66.1207 40.7998 66.211 40.8224 66.2894 40.8675C66.3679 40.9127 66.4283 40.9768 66.4707 41.0601C66.5137 41.1434 66.5355 41.239 66.536 41.347V41.4219C66.536 41.5326 66.5145 41.6296 66.4715 41.7129C66.4291 41.7961 66.3681 41.8601 66.2886 41.9046C66.2096 41.9492 66.1175 41.9721 66.0122 41.9731H65.6875ZM65.8422 40.9272V41.8466H66.005C66.1242 41.8466 66.2169 41.8096 66.283 41.7354C66.3496 41.6613 66.3829 41.5557 66.3829 41.4187V41.3502C66.3829 41.217 66.3515 41.1136 66.2886 41.04C66.2263 40.9658 66.1377 40.9282 66.0227 40.9272H65.8422ZM67.4007 41.6669H66.9091L66.7987 41.9731H66.6392L67.0872 40.7998H67.2226L67.6715 41.9731H67.5127L67.4007 41.6669ZM66.9559 41.5396H67.3548L67.1549 40.9908L66.9559 41.5396ZM68.5353 40.9272H68.1582V41.9731H68.0043V40.9272H67.6279V40.7998H68.5353V40.9272ZM69.2928 41.6669H68.8012L68.6908 41.9731H68.5313L68.9793 40.7998H69.1147L69.5636 41.9731H69.4048L69.2928 41.6669ZM68.848 41.5396H69.2469L69.047 40.9908L68.848 41.5396ZM70.828 41.4727C70.828 41.6473 70.7981 41.7771 70.7385 41.8619C70.6789 41.9468 70.5857 41.9893 70.4589 41.9893C70.3337 41.9893 70.241 41.9479 70.1809 41.8652C70.1207 41.7819 70.0895 41.6578 70.0874 41.4929V41.2938C70.0874 41.1214 70.1172 40.9932 70.1768 40.9094C70.2365 40.8256 70.3299 40.7837 70.4573 40.7837C70.5835 40.7837 70.6765 40.8243 70.7361 40.9054C70.7957 40.986 70.8263 41.1106 70.828 41.2793V41.4727ZM70.6789 41.2688C70.6789 41.1426 70.6611 41.0507 70.6257 40.9932C70.5902 40.9352 70.5341 40.9062 70.4573 40.9062C70.381 40.9062 70.3254 40.9349 70.2905 40.9924C70.2555 41.0499 70.2375 41.1383 70.2365 41.2576V41.4961C70.2365 41.6229 70.2547 41.7166 70.2913 41.7773C70.3283 41.8375 70.3842 41.8676 70.4589 41.8676C70.5325 41.8676 70.587 41.8391 70.6225 41.7822C70.6585 41.7252 70.6773 41.6355 70.6789 41.513V41.2688ZM71.7764 40.8836L71.2905 41.9731H71.1342L71.6185 40.9223H70.9835V40.7998H71.7764V40.8836Z" fill="#F5F7F6"/>
<path d="M74.5767 41.9731V40.7998H74.9079C75.01 40.7998 75.1003 40.8224 75.1787 40.8675C75.2571 40.9127 75.3176 40.9768 75.36 41.0601C75.403 41.1434 75.4248 41.239 75.4253 41.347V41.4219C75.4253 41.5326 75.4038 41.6296 75.3608 41.7129C75.3184 41.7961 75.2574 41.8601 75.1779 41.9046C75.0989 41.9492 75.0068 41.9721 74.9015 41.9731H74.5767ZM74.7315 40.9272V41.8466H74.8942C75.0135 41.8466 75.1062 41.8096 75.1723 41.7354C75.2389 41.6613 75.2722 41.5557 75.2722 41.4187V41.3502C75.2722 41.217 75.2408 41.1136 75.1779 41.04C75.1156 40.9658 75.0269 40.9282 74.912 40.9272H74.7315ZM76.29 41.6669H75.7984L75.688 41.9731H75.5284L75.9765 40.7998H76.1119L76.5607 41.9731H76.402L76.29 41.6669ZM75.8451 41.5396H76.244L76.0442 40.9908L75.8451 41.5396ZM77.4246 40.9272H77.0475V41.9731H76.8935V40.9272H76.5172V40.7998H77.4246V40.9272ZM78.1821 41.6669H77.6905L77.5801 41.9731H77.4206L77.8686 40.7998H78.004L78.4529 41.9731H78.2941L78.1821 41.6669ZM77.7373 41.5396H78.1362L77.9363 40.9908L77.7373 41.5396ZM79.7172 41.4727C79.7172 41.6473 79.6874 41.7771 79.6278 41.8619C79.5682 41.9468 79.4749 41.9893 79.3482 41.9893C79.223 41.9893 79.1303 41.9479 79.0701 41.8652C79.01 41.7819 78.9788 41.6578 78.9767 41.4929V41.2938C78.9767 41.1214 79.0065 40.9932 79.0661 40.9094C79.1257 40.8256 79.2192 40.7837 79.3465 40.7837C79.4728 40.7837 79.5657 40.8243 79.6254 40.9054C79.685 40.986 79.7156 41.1106 79.7172 41.2793V41.4727ZM79.5682 41.2688C79.5682 41.1426 79.5504 41.0507 79.515 40.9932C79.4795 40.9352 79.4234 40.9062 79.3465 40.9062C79.2703 40.9062 79.2147 40.9349 79.1797 40.9924C79.1448 41.0499 79.1268 41.1383 79.1257 41.2576V41.4961C79.1257 41.6229 79.144 41.7166 79.1805 41.7773C79.2176 41.8375 79.2735 41.8676 79.3482 41.8676C79.4218 41.8676 79.4763 41.8391 79.5117 41.7822C79.5477 41.7252 79.5665 41.6355 79.5682 41.513V41.2688ZM80.6198 41.1061C80.6198 41.1646 80.6042 41.2167 80.573 41.2624C80.5424 41.3081 80.5008 41.3438 80.4481 41.3696C80.5094 41.3959 80.5577 41.4343 80.5932 41.4848C80.6292 41.5353 80.6472 41.5925 80.6472 41.6564C80.6472 41.758 80.6128 41.8388 80.544 41.899C80.4758 41.9592 80.3858 41.9893 80.2741 41.9893C80.1613 41.9893 80.0707 41.9592 80.0025 41.899C79.9348 41.8383 79.901 41.7574 79.901 41.6564C79.901 41.5931 79.9182 41.5358 79.9525 41.4848C79.9875 41.4338 80.0355 41.3951 80.0968 41.3688C80.0447 41.343 80.0036 41.3072 79.9735 41.2616C79.9434 41.2159 79.9284 41.1641 79.9284 41.1061C79.9284 41.0072 79.9601 40.9288 80.0235 40.8707C80.0869 40.8127 80.1704 40.7837 80.2741 40.7837C80.3772 40.7837 80.4605 40.8127 80.5239 40.8707C80.5878 40.9288 80.6198 41.0072 80.6198 41.1061ZM80.4981 41.6532C80.4981 41.5877 80.4772 41.5342 80.4352 41.4929C80.3939 41.4515 80.3396 41.4308 80.2725 41.4308C80.2053 41.4308 80.1513 41.4512 80.1105 41.4921C80.0702 41.5329 80.0501 41.5866 80.0501 41.6532C80.0501 41.7198 80.0697 41.7722 80.1089 41.8104C80.1486 41.8485 80.2037 41.8676 80.2741 41.8676C80.3439 41.8676 80.3987 41.8485 80.4385 41.8104C80.4782 41.7717 80.4981 41.7193 80.4981 41.6532ZM80.2741 40.9062C80.2155 40.9062 80.168 40.9245 80.1314 40.961C80.0954 40.997 80.0775 41.0462 80.0775 41.1085C80.0775 41.1681 80.0952 41.2165 80.1306 41.2535C80.1666 41.2901 80.2144 41.3083 80.2741 41.3083C80.3337 41.3083 80.3813 41.2901 80.4167 41.2535C80.4527 41.2165 80.4707 41.1681 80.4707 41.1085C80.4707 41.0488 80.4522 41.0002 80.4151 40.9626C80.378 40.925 80.331 40.9062 80.2741 40.9062Z" fill="#F5F7F6"/>
</g>
<defs>
<linearGradient id="paint0_linear_1_1094" x1="12.4099" y1="45.6342" x2="12.4099" y2="17.5429" gradientUnits="userSpaceOnUse">
<stop stop-color="#27B7FF"/>
<stop offset="0.9899" stop-color="#F408AB"/>
</linearGradient>
<linearGradient id="paint1_linear_1_1094" x1="15.4598" y1="45.6344" x2="15.4598" y2="17.543" gradientUnits="userSpaceOnUse">
<stop stop-color="#27B7FF"/>
<stop offset="0.9899" stop-color="#F408AB"/>
</linearGradient>
<linearGradient id="paint2_linear_1_1094" x1="21.5594" y1="45.6344" x2="21.5594" y2="17.5431" gradientUnits="userSpaceOnUse">
<stop stop-color="#27B7FF"/>
<stop offset="0.9899" stop-color="#F408AB"/>
</linearGradient>
<linearGradient id="paint3_linear_1_1094" x1="24.6092" y1="45.6344" x2="24.6092" y2="17.5431" gradientUnits="userSpaceOnUse">
<stop stop-color="#27B7FF"/>
<stop offset="0.9899" stop-color="#F408AB"/>
</linearGradient>
<linearGradient id="paint4_linear_1_1094" x1="30.7089" y1="45.6343" x2="30.7089" y2="17.5431" gradientUnits="userSpaceOnUse">
<stop stop-color="#27B7FF"/>
<stop offset="0.9899" stop-color="#F408AB"/>
</linearGradient>
<linearGradient id="paint5_linear_1_1094" x1="33.7588" y1="45.6343" x2="33.7588" y2="17.543" gradientUnits="userSpaceOnUse">
<stop stop-color="#27B7FF"/>
<stop offset="0.9899" stop-color="#F408AB"/>
</linearGradient>
<linearGradient id="paint6_linear_1_1094" x1="39.8584" y1="45.6344" x2="39.8584" y2="17.5431" gradientUnits="userSpaceOnUse">
<stop stop-color="#27B7FF"/>
<stop offset="0.9899" stop-color="#F408AB"/>
</linearGradient>
<linearGradient id="paint7_linear_1_1094" x1="42.9082" y1="45.6343" x2="42.9082" y2="17.543" gradientUnits="userSpaceOnUse">
<stop stop-color="#27B7FF"/>
<stop offset="0.9899" stop-color="#F408AB"/>
</linearGradient>
<linearGradient id="paint8_linear_1_1094" x1="49.0079" y1="45.6343" x2="49.0079" y2="17.5431" gradientUnits="userSpaceOnUse">
<stop stop-color="#27B7FF"/>
<stop offset="0.9899" stop-color="#F408AB"/>
</linearGradient>
<linearGradient id="paint9_linear_1_1094" x1="52.0577" y1="45.6342" x2="52.0577" y2="17.5429" gradientUnits="userSpaceOnUse">
<stop stop-color="#27B7FF"/>
<stop offset="0.9899" stop-color="#F408AB"/>
</linearGradient>
<linearGradient id="paint10_linear_1_1094" x1="58.1573" y1="45.6343" x2="58.1573" y2="17.5429" gradientUnits="userSpaceOnUse">
<stop stop-color="#27B7FF"/>
<stop offset="0.9899" stop-color="#F408AB"/>
</linearGradient>
<linearGradient id="paint11_linear_1_1094" x1="61.2072" y1="45.6344" x2="61.2072" y2="17.5431" gradientUnits="userSpaceOnUse">
<stop stop-color="#27B7FF"/>
<stop offset="0.9899" stop-color="#F408AB"/>
</linearGradient>
<linearGradient id="paint12_linear_1_1094" x1="67.3069" y1="45.6344" x2="67.3069" y2="17.5431" gradientUnits="userSpaceOnUse">
<stop stop-color="#27B7FF"/>
<stop offset="0.9899" stop-color="#F408AB"/>
</linearGradient>
<linearGradient id="paint13_linear_1_1094" x1="70.3567" y1="45.6343" x2="70.3567" y2="17.543" gradientUnits="userSpaceOnUse">
<stop stop-color="#27B7FF"/>
<stop offset="0.9899" stop-color="#F408AB"/>
</linearGradient>
<linearGradient id="paint14_linear_1_1094" x1="76.4564" y1="45.6344" x2="76.4564" y2="17.5431" gradientUnits="userSpaceOnUse">
<stop stop-color="#27B7FF"/>
<stop offset="0.9899" stop-color="#F408AB"/>
</linearGradient>
<linearGradient id="paint15_linear_1_1094" x1="79.5062" y1="45.6344" x2="79.5062" y2="17.543" gradientUnits="userSpaceOnUse">
<stop stop-color="#27B7FF"/>
<stop offset="0.9899" stop-color="#F408AB"/>
</linearGradient>
<clipPath id="clip0_1_1094">
<rect width="375" height="9595" fill="white" transform="translate(-134 -4291)"/>
</clipPath>
</defs>
</svg>
