<svg width="86" height="91" viewBox="0 0 86 91" fill="none" xmlns="http://www.w3.org/2000/svg">
<rect width="85.6181" height="90.5649" rx="6.94141" fill="black"/>
<rect x="0.144613" y="0.144613" width="85.3289" height="90.2757" rx="6.7968" stroke="white" stroke-opacity="0.5" stroke-width="0.289226"/>
<path d="M50.4082 13.699C47.2232 13.699 44.141 14.1252 41.2033 14.909C38.1629 15.7196 35.29 16.9296 32.6263 18.467C29.9284 20.0271 27.4474 21.9259 25.2593 24.1139C23.0713 26.302 21.1725 28.7868 19.6086 31.4847C18.0674 34.1446 16.8612 37.0213 16.0506 40.0617C15.2668 42.9994 14.8406 46.0816 14.8406 49.2666H18.9769C18.9769 46.4546 19.3536 43.73 20.05 41.131C20.7692 38.4483 21.8384 35.9064 23.2007 33.5586C24.582 31.1765 26.2601 28.9847 28.1932 27.0516C30.1263 25.1185 32.3181 23.4404 34.7002 22.0591C37.0518 20.6968 39.5899 19.6276 42.2726 18.9084C44.8678 18.212 47.5962 17.8353 50.4082 17.8353V13.699Z" fill="url(#paint0_radial_736_5443)"/>
<path d="M42.2725 18.9083C39.5898 19.6275 37.0479 20.6968 34.7001 22.059C32.318 23.4403 30.1262 25.1185 28.1931 27.0515C26.2601 28.9846 24.5819 31.1764 23.2006 33.5585C21.8384 35.9101 20.7691 38.4482 20.0499 41.1309C19.3535 43.7261 18.9768 46.4545 18.9768 49.2666C18.9768 52.0786 19.3535 54.8032 20.0499 57.4022C20.7691 60.0849 21.8384 62.6268 23.2006 64.9746C24.5819 67.3567 26.2601 69.5485 28.1931 71.4816L31.1156 68.5592C29.4336 66.8772 27.98 64.9784 26.7814 62.9084C25.5979 60.8688 24.6695 58.6617 24.0454 56.3291C23.4404 54.0764 23.1131 51.7057 23.1131 49.2666C23.1131 46.8236 23.4404 44.4567 24.0454 42.204C24.6695 39.8752 25.5979 37.6682 26.7814 35.6247C27.98 33.5547 29.4374 31.6559 31.1156 29.9739C32.7975 28.292 34.6963 26.8384 36.7663 25.6398C38.806 24.4563 41.013 23.5279 43.3456 22.9038C45.5983 22.2988 47.969 21.9715 50.4082 21.9715V17.8352C47.5961 17.8352 44.8715 18.2119 42.2725 18.9083Z" fill="url(#paint1_linear_736_5443)"/>
<path d="M28.037 43.2735C28.566 41.2947 29.3536 39.4264 30.3582 37.6912C31.3742 35.9369 32.6109 34.3235 34.0379 32.8965C35.4649 31.4696 37.0783 30.2367 38.8325 29.2169C40.5639 28.2123 42.4361 27.4246 44.4148 26.8957C46.3289 26.382 48.338 26.1042 50.4081 26.1042V21.9717C47.9651 21.9717 45.5982 22.2989 43.3455 22.904C41.0167 23.528 38.8097 24.4565 36.7663 25.6399C34.6962 26.8386 32.7974 28.296 31.1155 29.9741C29.4336 31.656 27.9799 33.5549 26.7813 35.6249C25.5979 37.6645 24.6694 39.8716 24.0453 42.2042C23.4403 44.4569 23.113 46.8238 23.113 49.2667C23.113 51.7097 23.4403 54.0766 24.0453 56.3293C24.6694 58.6581 25.5979 60.8651 26.7813 62.9085C27.9799 64.9786 29.4374 66.8774 31.1155 68.5593C32.7974 70.2413 34.6962 71.6949 36.7663 72.8935C38.8059 74.077 41.0129 75.0054 43.3455 75.6295C45.6021 76.2345 47.9689 76.5618 50.4081 76.5618V72.4293C48.3342 72.4293 46.3289 72.1515 44.4148 71.6378C42.4361 71.1088 40.5677 70.3212 38.8325 69.3166C37.0783 68.3006 35.4649 67.0639 34.0379 65.6369C32.6109 64.2099 31.378 62.5965 30.3582 60.8423C29.3536 59.1109 28.566 57.2387 28.037 55.26C27.5233 53.346 27.2455 51.3368 27.2455 49.2667C27.2455 47.1929 27.5233 45.1875 28.037 43.2735Z" fill="url(#paint2_radial_736_5443)"/>
<path d="M66.8773 58.7759C66.0401 60.2181 65.0279 61.5423 63.8559 62.7143C62.6839 63.8863 61.3597 64.9023 59.9175 65.7357C58.4943 66.5614 56.957 67.2083 55.3321 67.6421C53.7606 68.0645 52.1129 68.2928 50.4082 68.2928C48.7072 68.2928 47.0557 68.0645 45.4842 67.6421C43.8593 67.2083 42.322 66.5614 40.8988 65.7357C39.4566 64.8985 38.1324 63.8863 36.9604 62.7143C35.7884 61.5423 34.7762 60.2181 33.939 58.7759C33.1133 57.3527 32.4664 55.8154 32.0326 54.1905C31.6102 52.619 31.3819 50.9675 31.3819 49.2666C31.3819 47.5656 31.6102 45.9141 32.0326 44.3426C32.4664 42.7177 33.1133 41.1804 33.939 39.7572C34.7762 38.315 35.7884 36.9908 36.9604 35.8188C38.1324 34.6468 39.4566 33.6346 40.8988 32.7974C42.322 31.9717 43.8593 31.3248 45.4842 30.891C47.0557 30.4686 48.7072 30.2403 50.4082 30.2403V26.104C48.3343 26.104 46.3289 26.3818 44.4149 26.8955C42.4362 27.4244 40.5678 28.2121 38.8326 29.2167C37.0784 30.2327 35.4649 31.4694 34.038 32.8964C32.611 34.3233 31.3781 35.9368 30.3583 37.691C29.3537 39.4224 28.566 41.2946 28.0371 43.2733C27.5234 45.1873 27.2456 47.1965 27.2456 49.2666C27.2456 51.3404 27.5234 53.3458 28.0371 55.2598C28.566 57.2385 29.3537 59.1069 30.3583 60.8421C31.3743 62.5963 32.611 64.2098 34.038 65.6367C35.4649 67.0637 37.0784 68.2966 38.8326 69.3164C40.564 70.321 42.4362 71.1087 44.4149 71.6376C46.3289 72.1513 48.3381 72.4291 50.4082 72.4291C52.482 72.4291 54.4874 72.1513 56.4014 71.6376C58.3802 71.1087 60.2485 70.321 61.9837 69.3164C63.7379 68.3004 65.3514 67.0637 66.7783 65.6367C68.2053 64.2098 69.4382 62.5963 70.458 60.8421L66.8773 58.7759Z" fill="url(#paint3_linear_736_5443)"/>
<path d="M65.2981 49.2665C65.2981 50.5983 65.1193 51.8883 64.7882 53.1212C64.4457 54.3921 63.9396 55.5946 63.2966 56.7095C62.6421 57.8397 61.8468 58.8747 60.9335 59.7918C60.0164 60.7089 58.9814 61.5042 57.8512 62.1587C56.7363 62.8055 55.5338 63.3116 54.2629 63.6503C53.0338 63.9814 51.7438 64.1602 50.4082 64.1602C49.0763 64.1602 47.7864 63.9814 46.5535 63.6503C45.2825 63.3078 44.0801 62.8017 42.9651 62.1587C41.835 61.5042 40.7999 60.7089 39.8829 59.7956C38.9658 58.8823 38.1705 57.8397 37.5198 56.7133C36.8729 55.5984 36.3668 54.396 36.0281 53.125C35.6971 51.8959 35.5182 50.6059 35.5182 49.2703C35.5182 47.9384 35.6971 46.6485 36.0281 45.4156C36.3706 44.1446 36.8767 42.9422 37.5198 41.8272C38.1743 40.6971 38.9696 39.662 39.8867 38.745C40.8037 37.8279 41.8388 37.0326 42.9689 36.3819C44.0839 35.735 45.2863 35.2289 46.5573 34.8902C47.7864 34.5592 49.0763 34.3803 50.412 34.3803V30.2402C48.711 30.2402 47.0596 30.4685 45.488 30.8909C43.8632 31.3247 42.3258 31.9716 40.9027 32.7974C39.4605 33.6345 38.1363 34.6467 36.9642 35.8187C35.7922 36.9907 34.78 38.315 33.9429 39.7572C33.1171 41.1803 32.4702 42.7176 32.0364 44.3425C31.6141 45.9141 31.3857 47.5617 31.3857 49.2665C31.3857 50.9674 31.6141 52.6189 32.0364 54.1905C32.4702 55.8153 33.1171 57.3526 33.9429 58.7758C34.78 60.218 35.7922 61.5422 36.9642 62.7142C38.1363 63.8862 39.4605 64.8984 40.9027 65.7356C42.3258 66.5613 43.8632 67.2082 45.488 67.642C47.0596 68.0644 48.711 68.2927 50.412 68.2927C52.1129 68.2927 53.7644 68.0644 55.336 67.642C56.9608 67.2082 58.4981 66.5613 59.9213 65.7356C61.3635 64.8984 62.6877 63.8862 63.8597 62.7142C65.0317 61.5422 66.0439 60.218 66.8811 58.7758C67.7068 57.3526 68.3537 55.8153 68.7875 54.1905C69.2099 52.6189 69.4382 50.9712 69.4382 49.2665H65.2981Z" fill="url(#paint4_radial_736_5443)"/>
<path opacity="0.77" d="M68.0988 48.9964C67.7564 47.7254 67.2503 46.523 66.6072 45.4081C65.9527 44.2779 65.1574 43.2429 64.2441 42.3258C63.327 41.4087 62.292 40.6134 61.1619 39.9627C60.0469 39.3159 58.8445 38.8098 57.5735 38.4711C56.3444 38.14 55.0544 37.9612 53.7188 37.9612C52.387 37.9612 51.097 38.14 49.8641 38.4711C48.5931 38.8136 47.3907 39.3197 46.2757 39.9627C45.1456 40.6172 44.1105 41.4125 43.1935 42.3258C42.2764 43.2429 41.4811 44.2779 40.8304 45.4081C40.1835 46.523 39.6774 47.7254 39.3388 48.9964C39.0077 50.2255 38.8289 51.5155 38.8289 52.8511C38.8289 54.183 39.0077 55.4729 39.3388 56.7058C39.6812 57.9768 40.1873 59.1792 40.8304 60.2942C41.4849 61.4243 42.2802 62.4594 43.1935 63.3764C44.1067 64.2935 45.1494 65.0888 46.2757 65.7395C47.3907 66.3864 48.5931 66.8925 49.8641 67.2312C51.0932 67.5622 52.3832 67.7411 53.7188 67.7411C55.0506 67.7411 56.3406 67.5622 57.5735 67.2312C58.8445 66.8887 60.0469 66.3826 61.1619 65.7395C62.292 65.085 63.327 64.2897 64.2441 63.3726C65.1612 62.4556 65.9565 61.4205 66.6072 60.2904C67.2541 59.1754 67.7602 57.973 68.0988 56.702C68.4299 55.4729 68.6087 54.183 68.6087 52.8473C68.6087 51.5193 68.4299 50.2293 68.0988 48.9964Z" fill="url(#paint5_radial_736_5443)"/>
<path d="M64.7882 45.4117C64.4457 44.1407 63.9396 42.9383 63.2965 41.8233C62.642 40.6932 61.8467 39.6582 60.9335 38.7411C60.0164 37.824 58.9814 37.0287 57.8512 36.378C56.7363 35.7311 55.5338 35.225 54.2629 34.8864C53.0338 34.5553 51.7438 34.3765 50.4081 34.3765C49.0763 34.3765 47.7863 34.5553 46.5534 34.8864C45.2825 35.2288 44.08 35.7349 42.9651 36.378C41.8349 37.0325 40.7999 37.8278 39.8828 38.7411C38.9658 39.6582 38.1705 40.6932 37.516 41.8233C36.8691 42.9383 36.363 44.1407 36.0243 45.4117C35.6933 46.6408 35.5144 47.9308 35.5144 49.2664C35.5144 50.5982 35.6933 51.8882 36.0243 53.1211C36.3668 54.3921 36.8729 55.5945 37.516 56.7095C38.1705 57.8396 38.9658 58.8747 39.879 59.7917C40.7923 60.7088 41.8311 61.5041 42.9613 62.1548C44.0762 62.8017 45.2787 63.3078 46.5496 63.6464C47.7787 63.9775 49.0687 64.1563 50.4043 64.1563C51.7362 64.1563 53.0262 63.9775 54.2591 63.6464C55.53 63.304 56.7325 62.7979 57.8474 62.1548C58.9776 61.5003 60.0126 60.705 60.9297 59.7879C61.8467 58.8708 62.642 57.8358 63.2927 56.7057C63.9396 55.5907 64.4457 54.3883 64.7844 53.1173C65.1154 51.8882 65.2943 50.5982 65.2943 49.2626C65.2981 47.9346 65.1192 46.6446 64.7882 45.4117Z" fill="url(#paint6_linear_736_5443)"/>
<path d="M61.4281 46.3137C61.1656 45.3395 60.7774 44.4186 60.2828 43.5663C59.7805 42.7025 59.1716 41.9072 58.4715 41.2032C57.7675 40.4992 56.976 39.8942 56.1084 39.3919C55.256 38.8972 54.3352 38.5091 53.361 38.2465C52.4173 37.9954 51.4279 37.8584 50.4081 37.8584C49.3883 37.8584 48.399 37.9954 47.4553 38.2465C46.4811 38.5091 45.5602 38.8972 44.7079 39.3919C43.8441 39.8942 43.0488 40.503 42.3448 41.2032C41.6408 41.9072 41.0358 42.6987 40.5335 43.5663C40.0388 44.4186 39.6507 45.3395 39.3881 46.3137C39.137 47.2574 39 48.2467 39 49.2665C39 50.2863 39.137 51.2757 39.3881 52.2194C39.6507 53.1936 40.0388 54.1144 40.5335 54.9668C41.0358 55.8306 41.6446 56.6259 42.3448 57.3299C43.0488 58.0338 43.8403 58.6389 44.7079 59.1412C45.5602 59.6358 46.4811 60.024 47.4553 60.2865C48.399 60.5377 49.3883 60.6747 50.4081 60.6747C51.4279 60.6747 52.4173 60.5377 53.361 60.2865C54.3352 60.024 55.256 59.6358 56.1084 59.1412C56.9722 58.6389 57.7675 58.03 58.4715 57.3299C59.1754 56.6259 59.7805 55.8344 60.2828 54.9668C60.7774 54.1144 61.1656 53.1936 61.4281 52.2194C61.6793 51.2757 61.8163 50.2863 61.8163 49.2665C61.8163 48.2467 61.6793 47.2574 61.4281 46.3137Z" fill="#F5F7F6"/>
<path d="M61.4014 16.7966L63.2621 15.7349L61.4014 14.6694V15.6284H52.4058V15.8376H61.4014V16.7966Z" fill="#F5F7F6"/>
<path d="M61.4014 19.7988H52.4058V20.0081H61.4014V20.9176L63.2621 19.8521L61.4014 18.7866V19.7988Z" fill="#F5F7F6"/>
<path d="M61.4014 23.9542H52.4058V24.1597H61.4014V25.1224L63.2621 24.0569L61.4014 22.9915V23.9542Z" fill="#F5F7F6"/>
<path d="M61.4014 28.3454H52.4058V28.5546H61.4014V29.4108L63.2621 28.3454L61.4014 27.2837V28.3454Z" fill="#F5F7F6"/>
<path d="M61.4014 32.5844H52.4058V32.7937H61.4014V33.7564L63.2621 32.691L61.4014 31.6255V32.5844Z" fill="#F5F7F6"/>
<path d="M66.2814 31.1644L65.5268 32.8564H65.284L66.0361 31.2245H65.05V31.0343H66.2814V31.1644ZM66.6506 31.9429L66.7432 31.0343H67.6768V31.2483H66.9397L66.8846 31.7451C66.9739 31.6926 67.0753 31.6663 67.1888 31.6663C67.3548 31.6663 67.4866 31.7214 67.5842 31.8315C67.6818 31.9408 67.7306 32.0889 67.7306 32.2758C67.7306 32.4635 67.6797 32.6116 67.578 32.72C67.477 32.8277 67.3356 32.8815 67.1537 32.8815C66.9927 32.8815 66.8613 32.8368 66.7595 32.7476C66.6577 32.6583 66.5997 32.5348 66.5855 32.3771H66.8045C66.8187 32.4814 66.8559 32.5603 66.9159 32.6137C66.976 32.6662 67.0553 32.6925 67.1537 32.6925C67.2613 32.6925 67.3456 32.6558 67.4065 32.5824C67.4682 32.509 67.4991 32.4076 67.4991 32.2783C67.4991 32.1565 67.4657 32.0588 67.399 31.9854C67.3331 31.9112 67.2451 31.874 67.1349 31.874C67.034 31.874 66.9547 31.8961 66.8972 31.9404L66.8358 31.9904L66.6506 31.9429ZM67.9634 31.3847C67.9634 31.2754 67.998 31.1853 68.0673 31.1144C68.1374 31.0435 68.2271 31.008 68.3364 31.008C68.4473 31.008 68.537 31.0439 68.6054 31.1156C68.6747 31.1866 68.7093 31.2787 68.7093 31.3922V31.4811C68.7093 31.5912 68.6743 31.6813 68.6042 31.7514C68.5349 31.8206 68.4465 31.8553 68.3389 31.8553C68.2304 31.8553 68.1407 31.8206 68.0698 31.7514C67.9989 31.6813 67.9634 31.5883 67.9634 31.4723V31.3847ZM68.1361 31.4811C68.1361 31.5461 68.1545 31.6 68.1912 31.6425C68.2279 31.6842 68.2771 31.7051 68.3389 31.7051C68.3981 31.7051 68.4457 31.6846 68.4815 31.6438C68.5182 31.6029 68.5366 31.547 68.5366 31.4761V31.3847C68.5366 31.3196 68.5187 31.2658 68.4828 31.2233C68.4469 31.1807 68.3981 31.1594 68.3364 31.1594C68.2746 31.1594 68.2258 31.1807 68.1899 31.2233C68.1541 31.2658 68.1361 31.3213 68.1361 31.3897V31.4811ZM68.8507 32.4097C68.8507 32.3004 68.8853 32.2107 68.9546 32.1406C69.0247 32.0697 69.1144 32.0342 69.2237 32.0342C69.3329 32.0342 69.4226 32.0693 69.4927 32.1393C69.5628 32.2094 69.5978 32.3025 69.5978 32.4184V32.5073C69.5978 32.6166 69.5628 32.7067 69.4927 32.7776C69.4235 32.8477 69.3346 32.8827 69.2262 32.8827C69.1177 32.8827 69.028 32.8481 68.9571 32.7789C68.8862 32.7088 68.8507 32.6157 68.8507 32.4998V32.4097ZM69.0234 32.5073C69.0234 32.5732 69.0418 32.6274 69.0785 32.67C69.1152 32.7117 69.1644 32.7325 69.2262 32.7325C69.2862 32.7325 69.3342 32.7121 69.3701 32.6712C69.406 32.6295 69.4239 32.5732 69.4239 32.5023V32.4097C69.4239 32.3438 69.4055 32.2899 69.3688 32.2482C69.3329 32.2065 69.2846 32.1857 69.2237 32.1857C69.1644 32.1857 69.116 32.2065 69.0785 32.2482C69.0418 32.2891 69.0234 32.3446 69.0234 32.4147V32.5073ZM68.3914 32.7188L68.26 32.6362L69.1498 31.212L69.2812 31.2946L68.3914 32.7188Z" fill="#F5F7F6"/>
<path d="M66.0136 26.9395V27.136H65.9711C65.7909 27.1394 65.6473 27.1928 65.5406 27.2962C65.4338 27.3997 65.372 27.5453 65.3553 27.733C65.4513 27.6228 65.5823 27.5678 65.7483 27.5678C65.9068 27.5678 66.0332 27.6237 66.1275 27.7355C66.2226 27.8473 66.2702 27.9916 66.2702 28.1685C66.2702 28.3562 66.2189 28.5064 66.1162 28.619C66.0144 28.7317 65.8776 28.788 65.7058 28.788C65.5314 28.788 65.39 28.7212 65.2815 28.5877C65.173 28.4534 65.1188 28.2807 65.1188 28.0696V27.9808C65.1188 27.6454 65.1901 27.3892 65.3328 27.2124C65.4763 27.0346 65.6895 26.9437 65.9723 26.9395H66.0136ZM65.7095 27.7605C65.6302 27.7605 65.5572 27.7843 65.4905 27.8318C65.4238 27.8794 65.3774 27.9391 65.3516 28.0108V28.0959C65.3516 28.2461 65.3854 28.3671 65.453 28.4588C65.5205 28.5506 65.6048 28.5965 65.7058 28.5965C65.81 28.5965 65.8918 28.5581 65.951 28.4814C66.0111 28.4046 66.0411 28.3041 66.0411 28.1798C66.0411 28.0546 66.0107 27.9537 65.9498 27.8769C65.8897 27.7993 65.8096 27.7605 65.7095 27.7605ZM67.6868 27.9858C67.6868 28.2569 67.6405 28.4584 67.5479 28.5902C67.4553 28.7221 67.3106 28.788 67.1137 28.788C66.9193 28.788 66.7753 28.7237 66.6819 28.5952C66.5885 28.4659 66.5401 28.2732 66.5367 28.0171V27.7079C66.5367 27.4401 66.583 27.2411 66.6756 27.111C66.7683 26.9808 66.9134 26.9158 67.1112 26.9158C67.3072 26.9158 67.4516 26.9788 67.5442 27.1047C67.6368 27.2299 67.6843 27.4234 67.6868 27.6854V27.9858ZM67.4553 27.6691C67.4553 27.4731 67.4278 27.3304 67.3727 27.2411C67.3177 27.151 67.2305 27.106 67.1112 27.106C66.9927 27.106 66.9063 27.1506 66.8521 27.2399C66.7979 27.3292 66.7699 27.4664 66.7683 27.6516V28.0221C66.7683 28.219 66.7966 28.3646 66.8534 28.4588C66.9109 28.5523 66.9977 28.599 67.1137 28.599C67.228 28.599 67.3126 28.5548 67.3677 28.4663C67.4236 28.3779 67.4528 28.2386 67.4553 28.0483V27.6691ZM67.9634 27.2912C67.9634 27.1819 67.998 27.0918 68.0673 27.0209C68.1374 26.95 68.2271 26.9145 68.3364 26.9145C68.4473 26.9145 68.537 26.9504 68.6054 27.0221C68.6747 27.0931 68.7093 27.1852 68.7093 27.2987V27.3876C68.7093 27.4977 68.6743 27.5878 68.6042 27.6579C68.5349 27.7271 68.4465 27.7618 68.3389 27.7618C68.2304 27.7618 68.1407 27.7271 68.0698 27.6579C67.9989 27.5878 67.9634 27.4948 67.9634 27.3788V27.2912ZM68.1361 27.3876C68.1361 27.4526 68.1545 27.5065 68.1912 27.549C68.2279 27.5907 68.2771 27.6116 68.3389 27.6116C68.3981 27.6116 68.4457 27.5911 68.4815 27.5503C68.5182 27.5094 68.5366 27.4535 68.5366 27.3826V27.2912C68.5366 27.2261 68.5187 27.1723 68.4828 27.1298C68.4469 27.0872 68.3981 27.0659 68.3364 27.0659C68.2746 27.0659 68.2258 27.0872 68.1899 27.1298C68.1541 27.1723 68.1361 27.2278 68.1361 27.2962V27.3876ZM68.8507 28.3162C68.8507 28.2069 68.8853 28.1172 68.9546 28.0471C69.0247 27.9762 69.1144 27.9407 69.2237 27.9407C69.3329 27.9407 69.4226 27.9758 69.4927 28.0458C69.5628 28.1159 69.5978 28.209 69.5978 28.3249V28.4138C69.5978 28.5231 69.5628 28.6132 69.4927 28.6841C69.4235 28.7542 69.3346 28.7892 69.2262 28.7892C69.1177 28.7892 69.028 28.7546 68.9571 28.6853C68.8862 28.6153 68.8507 28.5222 68.8507 28.4063V28.3162ZM69.0234 28.4138C69.0234 28.4797 69.0418 28.5339 69.0785 28.5765C69.1152 28.6182 69.1644 28.639 69.2262 28.639C69.2862 28.639 69.3342 28.6186 69.3701 28.5777C69.406 28.536 69.4239 28.4797 69.4239 28.4088V28.3162C69.4239 28.2503 69.4055 28.1964 69.3688 28.1547C69.3329 28.113 69.2846 28.0921 69.2237 28.0921C69.1644 28.0921 69.116 28.113 69.0785 28.1547C69.0418 28.1956 69.0234 28.2511 69.0234 28.3212V28.4138ZM68.3914 28.6253L68.26 28.5427L69.1498 27.1185L69.2812 27.2011L68.3914 28.6253Z" fill="#F5F7F6"/>
<path d="M65.2114 23.6846L65.304 22.776H66.2376V22.99H65.5005L65.4454 23.4868C65.5347 23.4343 65.6361 23.408 65.7496 23.408C65.9156 23.408 66.0474 23.4631 66.145 23.5732C66.2426 23.6825 66.2914 23.8306 66.2914 24.0175C66.2914 24.2052 66.2405 24.3533 66.1388 24.4617C66.0378 24.5694 65.8964 24.6232 65.7145 24.6232C65.5535 24.6232 65.4221 24.5785 65.3203 24.4893C65.2185 24.4 65.1605 24.2765 65.1463 24.1188H65.3653C65.3795 24.2231 65.4167 24.302 65.4767 24.3554C65.5368 24.4079 65.6161 24.4342 65.7145 24.4342C65.8221 24.4342 65.9064 24.3975 65.9673 24.3241C66.029 24.2507 66.0599 24.1493 66.0599 24.02C66.0599 23.8982 66.0265 23.8005 65.9598 23.7271C65.8939 23.6529 65.8059 23.6157 65.6957 23.6157C65.5948 23.6157 65.5155 23.6378 65.458 23.6821L65.3966 23.7321L65.2114 23.6846ZM67.6868 23.821C67.6868 24.0921 67.6405 24.2936 67.5479 24.4254C67.4553 24.5573 67.3106 24.6232 67.1137 24.6232C66.9193 24.6232 66.7753 24.5589 66.6819 24.4304C66.5885 24.3011 66.5401 24.1084 66.5367 23.8523V23.5431C66.5367 23.2753 66.583 23.0763 66.6756 22.9462C66.7683 22.816 66.9134 22.751 67.1112 22.751C67.3072 22.751 67.4516 22.814 67.5442 22.9399C67.6368 23.0651 67.6843 23.2586 67.6868 23.5206V23.821ZM67.4553 23.5044C67.4553 23.3083 67.4278 23.1656 67.3727 23.0763C67.3177 22.9862 67.2305 22.9412 67.1112 22.9412C66.9927 22.9412 66.9063 22.9858 66.8521 23.0751C66.7979 23.1644 66.7699 23.3016 66.7683 23.4868V23.8573C66.7683 24.0542 66.7966 24.1998 66.8534 24.294C66.9109 24.3875 66.9977 24.4342 67.1137 24.4342C67.228 24.4342 67.3126 24.39 67.3677 24.3015C67.4236 24.2131 67.4528 24.0738 67.4553 23.8836V23.5044ZM67.9634 23.1264C67.9634 23.0171 67.998 22.927 68.0673 22.8561C68.1374 22.7852 68.2271 22.7497 68.3364 22.7497C68.4473 22.7497 68.537 22.7856 68.6054 22.8573C68.6747 22.9283 68.7093 23.0204 68.7093 23.1339V23.2228C68.7093 23.3329 68.6743 23.423 68.6042 23.4931C68.5349 23.5623 68.4465 23.597 68.3389 23.597C68.2304 23.597 68.1407 23.5623 68.0698 23.4931C67.9989 23.423 67.9634 23.33 67.9634 23.214V23.1264ZM68.1361 23.2228C68.1361 23.2878 68.1545 23.3417 68.1912 23.3842C68.2279 23.4259 68.2771 23.4468 68.3389 23.4468C68.3981 23.4468 68.4457 23.4263 68.4815 23.3855C68.5182 23.3446 68.5366 23.2887 68.5366 23.2178V23.1264C68.5366 23.0613 68.5187 23.0075 68.4828 22.965C68.4469 22.9224 68.3981 22.9011 68.3364 22.9011C68.2746 22.9011 68.2258 22.9224 68.1899 22.965C68.1541 23.0075 68.1361 23.063 68.1361 23.1314V23.2228ZM68.8507 24.1514C68.8507 24.0421 68.8853 23.9524 68.9546 23.8823C69.0247 23.8114 69.1144 23.7759 69.2237 23.7759C69.3329 23.7759 69.4226 23.811 69.4927 23.881C69.5628 23.9511 69.5978 24.0442 69.5978 24.1601V24.249C69.5978 24.3583 69.5628 24.4484 69.4927 24.5193C69.4235 24.5894 69.3346 24.6244 69.2262 24.6244C69.1177 24.6244 69.028 24.5898 68.9571 24.5206C68.8862 24.4505 68.8507 24.3574 68.8507 24.2415V24.1514ZM69.0234 24.249C69.0234 24.3149 69.0418 24.3691 69.0785 24.4117C69.1152 24.4534 69.1644 24.4742 69.2262 24.4742C69.2862 24.4742 69.3342 24.4538 69.3701 24.4129C69.406 24.3712 69.4239 24.3149 69.4239 24.244V24.1514C69.4239 24.0855 69.4055 24.0316 69.3688 23.9899C69.3329 23.9482 69.2846 23.9274 69.2237 23.9274C69.1644 23.9274 69.116 23.9482 69.0785 23.9899C69.0418 24.0308 69.0234 24.0863 69.0234 24.1564V24.249ZM68.3914 24.4605L68.26 24.3779L69.1498 22.9537L69.2812 23.0363L68.3914 24.4605Z" fill="#F5F7F6"/>
<path d="M65.4417 19.1604H65.6156C65.7249 19.1587 65.8109 19.1299 65.8734 19.074C65.936 19.0181 65.9673 18.9426 65.9673 18.8475C65.9673 18.6339 65.8609 18.5271 65.6482 18.5271C65.5481 18.5271 65.468 18.5559 65.4079 18.6135C65.3487 18.6702 65.319 18.7457 65.319 18.84H65.0875C65.0875 18.6957 65.1401 18.5759 65.2452 18.4808C65.3512 18.3849 65.4855 18.3369 65.6482 18.3369C65.8201 18.3369 65.9548 18.3824 66.0524 18.4733C66.15 18.5643 66.1988 18.6907 66.1988 18.8525C66.1988 18.9318 66.173 19.0085 66.1212 19.0828C66.0703 19.157 66.0007 19.2125 65.9122 19.2492C66.0124 19.2809 66.0895 19.3335 66.1438 19.4069C66.1988 19.4803 66.2264 19.57 66.2264 19.676C66.2264 19.8395 66.173 19.9692 66.0662 20.0652C65.9594 20.1611 65.8205 20.2091 65.6494 20.2091C65.4784 20.2091 65.3391 20.1628 65.2314 20.0702C65.1246 19.9776 65.0713 19.8554 65.0713 19.7035H65.304C65.304 19.7995 65.3353 19.8762 65.3979 19.9338C65.4605 19.9914 65.5443 20.0201 65.6494 20.0201C65.7612 20.0201 65.8468 19.9909 65.906 19.9325C65.9652 19.8741 65.9948 19.7903 65.9948 19.681C65.9948 19.575 65.9623 19.4937 65.8972 19.437C65.8322 19.3802 65.7383 19.351 65.6156 19.3493H65.4417V19.1604ZM67.6868 19.4069C67.6868 19.6781 67.6405 19.8796 67.5479 20.0114C67.4553 20.1432 67.3106 20.2091 67.1137 20.2091C66.9193 20.2091 66.7753 20.1449 66.6819 20.0164C66.5885 19.8871 66.5401 19.6943 66.5367 19.4382V19.1291C66.5367 18.8613 66.583 18.6623 66.6756 18.5321C66.7683 18.402 66.9134 18.3369 67.1112 18.3369C67.3072 18.3369 67.4516 18.3999 67.5442 18.5259C67.6368 18.651 67.6843 18.8446 67.6868 19.1066V19.4069ZM67.4553 19.0903C67.4553 18.8942 67.4278 18.7516 67.3727 18.6623C67.3177 18.5722 67.2305 18.5271 67.1112 18.5271C66.9927 18.5271 66.9063 18.5718 66.8521 18.661C66.7979 18.7503 66.7699 18.8876 66.7683 19.0728V19.4432C66.7683 19.6401 66.7966 19.7857 66.8534 19.88C66.9109 19.9734 66.9977 20.0201 67.1137 20.0201C67.228 20.0201 67.3126 19.9759 67.3677 19.8875C67.4236 19.799 67.4528 19.6597 67.4553 19.4695V19.0903ZM67.9634 18.7123C67.9634 18.603 67.998 18.5129 68.0673 18.442C68.1374 18.3711 68.2271 18.3357 68.3364 18.3357C68.4473 18.3357 68.537 18.3715 68.6054 18.4433C68.6747 18.5142 68.7093 18.6064 68.7093 18.7199V18.8087C68.7093 18.9188 68.6743 19.0089 68.6042 19.079C68.5349 19.1483 68.4465 19.1829 68.3389 19.1829C68.2304 19.1829 68.1407 19.1483 68.0698 19.079C67.9989 19.0089 67.9634 18.9159 67.9634 18.7999V18.7123ZM68.1361 18.8087C68.1361 18.8738 68.1545 18.9276 68.1912 18.9701C68.2279 19.0119 68.2771 19.0327 68.3389 19.0327C68.3981 19.0327 68.4457 19.0123 68.4815 18.9714C68.5182 18.9305 68.5366 18.8746 68.5366 18.8037V18.7123C68.5366 18.6473 68.5187 18.5935 68.4828 18.5509C68.4469 18.5084 68.3981 18.4871 68.3364 18.4871C68.2746 18.4871 68.2258 18.5084 68.1899 18.5509C68.1541 18.5935 68.1361 18.6489 68.1361 18.7174V18.8087ZM68.8507 19.7373C68.8507 19.628 68.8853 19.5383 68.9546 19.4682C69.0247 19.3973 69.1144 19.3619 69.2237 19.3619C69.3329 19.3619 69.4226 19.3969 69.4927 19.467C69.5628 19.5371 69.5978 19.6301 69.5978 19.7461V19.8349C69.5978 19.9442 69.5628 20.0343 69.4927 20.1052C69.4235 20.1753 69.3346 20.2104 69.2262 20.2104C69.1177 20.2104 69.028 20.1757 68.9571 20.1065C68.8862 20.0364 68.8507 19.9434 68.8507 19.8274V19.7373ZM69.0234 19.8349C69.0234 19.9008 69.0418 19.9551 69.0785 19.9976C69.1152 20.0393 69.1644 20.0602 69.2262 20.0602C69.2862 20.0602 69.3342 20.0397 69.3701 19.9989C69.406 19.9571 69.4239 19.9008 69.4239 19.8299V19.7373C69.4239 19.6714 69.4055 19.6176 69.3688 19.5759C69.3329 19.5341 69.2846 19.5133 69.2237 19.5133C69.1644 19.5133 69.116 19.5341 69.0785 19.5759C69.0418 19.6167 69.0234 19.6722 69.0234 19.7423V19.8349ZM68.3914 20.0464L68.26 19.9638L69.1498 18.5396L69.2812 18.6222L68.3914 20.0464Z" fill="#F5F7F6"/>
<path d="M65.8659 15.699H65.6331V14.1559L65.1663 14.3274V14.1171L65.8296 13.8681H65.8659V15.699ZM66.6506 14.7854L66.7432 13.8768H67.6768V14.0908H66.9396L66.8846 14.5877C66.9739 14.5351 67.0752 14.5088 67.1887 14.5088C67.3547 14.5088 67.4865 14.5639 67.5842 14.674C67.6818 14.7833 67.7306 14.9314 67.7306 15.1183C67.7306 15.306 67.6797 15.4541 67.5779 15.5626C67.4769 15.6702 67.3355 15.724 67.1536 15.724C66.9926 15.724 66.8612 15.6794 66.7594 15.5901C66.6576 15.5008 66.5997 15.3773 66.5855 15.2197H66.8045C66.8187 15.3239 66.8558 15.4028 66.9159 15.4562C66.9759 15.5088 67.0552 15.535 67.1536 15.535C67.2613 15.535 67.3455 15.4983 67.4064 15.4249C67.4682 15.3515 67.4991 15.2501 67.4991 15.1208C67.4991 14.999 67.4657 14.9014 67.3989 14.8279C67.333 14.7537 67.245 14.7166 67.1349 14.7166C67.0339 14.7166 66.9547 14.7387 66.8971 14.7829L66.8358 14.833L66.6506 14.7854ZM67.9634 14.2272C67.9634 14.1179 67.998 14.0278 68.0672 13.9569C68.1373 13.886 68.227 13.8505 68.3363 13.8505C68.4473 13.8505 68.5369 13.8864 68.6054 13.9582C68.6746 14.0291 68.7092 14.1213 68.7092 14.2347V14.3236C68.7092 14.4337 68.6742 14.5238 68.6041 14.5939C68.5349 14.6632 68.4464 14.6978 68.3388 14.6978C68.2303 14.6978 68.1406 14.6632 68.0697 14.5939C67.9988 14.5238 67.9634 14.4308 67.9634 14.3148V14.2272ZM68.1361 14.3236C68.1361 14.3887 68.1544 14.4425 68.1911 14.485C68.2278 14.5268 68.2771 14.5476 68.3388 14.5476C68.398 14.5476 68.4456 14.5272 68.4815 14.4863C68.5182 14.4454 68.5365 14.3895 68.5365 14.3186V14.2272C68.5365 14.1622 68.5186 14.1083 68.4827 14.0658C68.4468 14.0232 68.398 14.002 68.3363 14.002C68.2746 14.002 68.2257 14.0232 68.1899 14.0658C68.154 14.1083 68.1361 14.1638 68.1361 14.2322V14.3236ZM68.8507 15.2522C68.8507 15.1429 68.8853 15.0532 68.9545 14.9831C69.0246 14.9122 69.1143 14.8768 69.2236 14.8768C69.3329 14.8768 69.4226 14.9118 69.4927 14.9819C69.5627 15.052 69.5978 15.145 69.5978 15.261V15.3498C69.5978 15.4591 69.5627 15.5492 69.4927 15.6201C69.4234 15.6902 69.3346 15.7253 69.2261 15.7253C69.1176 15.7253 69.0279 15.6906 68.957 15.6214C68.8861 15.5513 68.8507 15.4583 68.8507 15.3423V15.2522ZM69.0234 15.3498C69.0234 15.4157 69.0417 15.47 69.0784 15.5125C69.1151 15.5542 69.1644 15.5751 69.2261 15.5751C69.2862 15.5751 69.3341 15.5546 69.37 15.5138C69.4059 15.472 69.4238 15.4157 69.4238 15.3448V15.2522C69.4238 15.1863 69.4055 15.1325 69.3688 15.0908C69.3329 15.049 69.2845 15.0282 69.2236 15.0282C69.1644 15.0282 69.116 15.049 69.0784 15.0908C69.0417 15.1316 69.0234 15.1871 69.0234 15.2572V15.3498ZM68.3914 15.5613L68.26 15.4787L69.1498 14.0545L69.2812 14.1371L68.3914 15.5613Z" fill="#F5F7F6"/>
<path d="M52.0868 46.8028C51.1245 46.0381 49.7607 46.0253 48.8367 46.7773C48.1739 47.3126 47.8425 48.1156 47.8425 49.1544C47.8425 49.8426 48.4607 50.8304 48.5372 50.9579C48.5435 50.9642 49.0534 51.6525 49.1744 52.4746L49.2063 52.6785H51.7745L51.8064 52.4746C51.9275 51.6525 52.4373 50.9642 52.4501 50.9451C52.5202 50.8368 53.1383 49.849 53.1383 49.1607C53.1319 48.1411 52.7814 47.3509 52.0868 46.8028ZM50.4363 48.1538C50.0029 48.1666 49.6078 48.4342 49.4421 48.8357C49.4039 48.9249 49.3146 48.9823 49.2191 48.9823C49.1872 48.9823 49.1553 48.9759 49.1235 48.9632C49.0024 48.9122 48.945 48.772 48.996 48.6509C49.2382 48.0774 49.799 47.695 50.4171 47.6759C50.5446 47.6695 50.6593 47.7778 50.6593 47.9117C50.672 48.0391 50.5701 48.1475 50.4363 48.1538Z" fill="#193566"/>
<path d="M51.7553 53.7556H49.1042C48.9704 53.7556 48.8621 53.6472 48.8621 53.5134C48.8621 53.3796 48.9704 53.2712 49.1042 53.2712H51.7553C51.8891 53.2712 51.9975 53.3796 51.9975 53.5134C51.9975 53.6472 51.8891 53.7556 51.7553 53.7556Z" fill="#193566"/>
<path d="M51.1563 53.6282H49.646V54.2591H51.1563V53.6282Z" fill="#193566"/>
<path d="M50.3788 45.6813C50.245 45.6813 50.1367 45.573 50.1367 45.4392V44.7636C50.1367 44.6298 50.245 44.5215 50.3788 44.5215C50.5127 44.5215 50.621 44.6298 50.621 44.7636V45.4392C50.621 45.5794 50.5127 45.6813 50.3788 45.6813Z" fill="#193566"/>
<path d="M48.4606 46.223C48.3778 46.223 48.2949 46.1784 48.2503 46.1019L47.9125 45.5156C47.8488 45.4009 47.887 45.2543 48.0018 45.1906C48.1165 45.1269 48.263 45.1651 48.3268 45.2798L48.6645 45.8661C48.7283 45.9808 48.69 46.1274 48.5753 46.1911C48.5434 46.2166 48.5052 46.223 48.4606 46.223Z" fill="#193566"/>
<path d="M47.0714 47.6568C47.0332 47.6568 46.9886 47.6441 46.9504 47.625L46.3641 47.2872C46.2493 47.2235 46.2111 47.0769 46.2748 46.9622C46.3386 46.8475 46.4851 46.8093 46.5999 46.873L47.1862 47.2107C47.3009 47.2745 47.3391 47.421 47.2754 47.5358C47.2371 47.6122 47.1543 47.6568 47.0714 47.6568Z" fill="#193566"/>
<path d="M46.5808 49.5878H45.9053C45.7714 49.5878 45.6631 49.4795 45.6631 49.3457C45.6631 49.2119 45.7714 49.1035 45.9053 49.1035H46.5808C46.7146 49.1035 46.8229 49.2119 46.8229 49.3457C46.8229 49.4795 46.7146 49.5878 46.5808 49.5878Z" fill="#193566"/>
<path d="M46.5425 51.8439C46.4597 51.8439 46.3768 51.7992 46.3322 51.7228C46.2685 51.6081 46.3067 51.4615 46.4214 51.3978L47.0077 51.06C47.1224 50.9963 47.269 51.0345 47.3327 51.1492C47.3965 51.2639 47.3582 51.4105 47.2435 51.4742L46.6572 51.812C46.6254 51.8311 46.5808 51.8439 46.5425 51.8439Z" fill="#193566"/>
<path d="M54.381 51.7545C54.3428 51.7545 54.2982 51.7418 54.2599 51.7226L53.6736 51.3849C53.5589 51.3212 53.5207 51.1746 53.5844 51.0599C53.6481 50.9451 53.7947 50.9069 53.9094 50.9706L54.4957 51.3084C54.6104 51.3721 54.6487 51.5187 54.5849 51.6334C54.5403 51.7099 54.4639 51.7545 54.381 51.7545Z" fill="#193566"/>
<path d="M54.9609 49.4795H54.2854C54.1516 49.4795 54.0432 49.3711 54.0432 49.2373C54.0432 49.1035 54.1516 48.9951 54.2854 48.9951H54.9609C55.0947 48.9951 55.2031 49.1035 55.2031 49.2373C55.2031 49.3711 55.0947 49.4795 54.9609 49.4795Z" fill="#193566"/>
<path d="M53.7437 47.5611C53.6608 47.5611 53.578 47.5165 53.5334 47.4401C53.4697 47.3253 53.5079 47.1788 53.6226 47.115L54.2089 46.7773C54.3236 46.7136 54.4702 46.7518 54.5339 46.8665C54.5976 46.9812 54.5594 47.1278 54.4447 47.1915L53.8584 47.5293C53.8265 47.5548 53.7819 47.5611 53.7437 47.5611Z" fill="#193566"/>
<path d="M52.3162 46.172C52.278 46.172 52.2334 46.1592 52.1951 46.1401C52.0804 46.0764 52.0422 45.9298 52.1059 45.8151L52.4437 45.2288C52.5074 45.1141 52.654 45.0759 52.7687 45.1396C52.8834 45.2033 52.9216 45.3499 52.8579 45.4646L52.5201 46.0509C52.4755 46.1274 52.3927 46.172 52.3162 46.172Z" fill="#193566"/>
<defs>
<radialGradient id="paint0_radial_736_5443" cx="0" cy="0" r="1" gradientUnits="userSpaceOnUse" gradientTransform="translate(32.6246 42.6154) rotate(-90) scale(30.6043)">
<stop stop-color="#0066FF"/>
<stop offset="0.276042" stop-color="#0066FF"/>
<stop offset="0.6406" stop-color="#0097CE"/>
<stop offset="1" stop-color="#0058CB"/>
</radialGradient>
<linearGradient id="paint1_linear_736_5443" x1="34.6923" y1="81.2842" x2="34.6923" y2="19.8677" gradientUnits="userSpaceOnUse">
<stop stop-color="#27B7FF"/>
<stop offset="0.9899" stop-color="#F408AB"/>
</linearGradient>
<radialGradient id="paint2_radial_736_5443" cx="0" cy="0" r="1" gradientUnits="userSpaceOnUse" gradientTransform="translate(36.7601 42.6154) rotate(-90) scale(30.6044)">
<stop stop-color="#0066FF"/>
<stop offset="0.307292" stop-color="#0066FF"/>
<stop offset="0.651042" stop-color="#0097CE"/>
<stop offset="0.9819" stop-color="#0058CB"/>
</radialGradient>
<linearGradient id="paint3_linear_736_5443" x1="48.8522" y1="81.2842" x2="48.8522" y2="19.8675" gradientUnits="userSpaceOnUse">
<stop stop-color="#27B7FF"/>
<stop offset="0.9899" stop-color="#F408AB"/>
</linearGradient>
<radialGradient id="paint4_radial_736_5443" cx="0" cy="0" r="1" gradientUnits="userSpaceOnUse" gradientTransform="translate(50.4086 42.6153) rotate(-90) scale(30.6042)">
<stop stop-color="#0066FF"/>
<stop offset="0.338542" stop-color="#0066FF"/>
<stop offset="0.692708" stop-color="#0097CE"/>
<stop offset="0.9819" stop-color="#0058CB"/>
</radialGradient>
<radialGradient id="paint5_radial_736_5443" cx="0" cy="0" r="1" gradientUnits="userSpaceOnUse" gradientTransform="translate(53.7172 52.8512) scale(14.8897)">
<stop offset="0.000116"/>
<stop offset="0.0894" stop-color="#1D1D1D"/>
<stop offset="0.3464" stop-color="#6C6C6C"/>
<stop offset="0.5751" stop-color="#ABABAB"/>
<stop offset="0.7669" stop-color="#D9D9D9"/>
<stop offset="0.9145" stop-color="#F5F5F5"/>
<stop offset="1" stop-color="white"/>
</radialGradient>
<linearGradient id="paint6_linear_736_5443" x1="63.6428" y1="62.501" x2="39.184" y2="38.0423" gradientUnits="userSpaceOnUse">
<stop stop-color="#071A35"/>
<stop offset="1" stop-color="#193566"/>
</linearGradient>
</defs>
</svg>
