<svg width="115" height="86" viewBox="0 0 115 86" fill="none" xmlns="http://www.w3.org/2000/svg">
<rect x="-30" width="144.573" height="86" rx="8.47992" fill="black"/>
<rect x="-29.8233" y="0.176665" width="144.22" height="85.6467" rx="8.30325" stroke="white" stroke-opacity="0.5" stroke-width="0.35333"/>
<path d="M100.862 15.8669H-10.6219V16.2063H100.862V15.8669Z" fill="#FDFEFF"/>
<path d="M100.862 19.6648H-10.6219V20.0041H100.862V19.6648Z" fill="#FDFEFF"/>
<path d="M100.862 23.4629H-10.6219V23.8022H100.862V23.4629Z" fill="#FDFEFF"/>
<path d="M100.862 27.2654H-10.6219V27.6094H100.862V27.2654Z" fill="#FDFEFF"/>
<path d="M100.862 31.0635H-10.6219V31.4075H100.862V31.0635Z" fill="#FDFEFF"/>
<path d="M100.862 34.8613H-10.6219V35.2053H100.862V34.8613Z" fill="#FDFEFF"/>
<path d="M100.862 38.6592H-10.6219V38.9985H100.862V38.6592Z" fill="#FDFEFF"/>
<path d="M100.862 42.4573H-10.6219V42.8013H100.862V42.4573Z" fill="#FDFEFF"/>
<path d="M100.862 46.2554H-10.6219V46.5947H100.862V46.2554Z" fill="#FDFEFF"/>
<path d="M100.862 50.0576H-10.6219V50.397H100.862V50.0576Z" fill="#FDFEFF"/>
<path d="M100.862 53.8557H-10.6219V54.1951H100.862V53.8557Z" fill="#FDFEFF"/>
<path d="M100.862 57.6536H-10.6219V57.9929H100.862V57.6536Z" fill="#FDFEFF"/>
<path d="M100.862 61.4517H-10.6219V61.791H100.862V61.4517Z" fill="#FDFEFF"/>
<path d="M100.862 65.2495H-10.6219V65.5889H100.862V65.2495Z" fill="#FDFEFF"/>
<path d="M9.70691 15.9692H9.36757V65.5703H9.70691V15.9692Z" fill="#FDFEFF"/>
<path d="M19.8502 15.9692H19.5108V65.5703H19.8502V15.9692Z" fill="#FDFEFF"/>
<path d="M29.9934 15.9692H29.6541V65.5703H29.9934V15.9692Z" fill="#FDFEFF"/>
<path d="M40.1322 15.9692H39.7929V65.5703H40.1322V15.9692Z" fill="#FDFEFF"/>
<path d="M50.2755 15.9692H49.9361V65.5703H50.2755V15.9692Z" fill="#FDFEFF"/>
<path d="M60.419 15.9692H60.0797V65.5703H60.419V15.9692Z" fill="#FDFEFF"/>
<path d="M70.5623 15.9692H70.223V65.5703H70.5623V15.9692Z" fill="#FDFEFF"/>
<path d="M80.7056 15.9692H80.3662V65.5703H80.7056V15.9692Z" fill="#FDFEFF"/>
<path d="M90.8488 15.9692H90.5095V65.5703H90.8488V15.9692Z" fill="#FDFEFF"/>
<path d="M100.988 15.9692H100.648V65.5703H100.988V15.9692Z" fill="#FDFEFF"/>
<path d="M-2.99486 71.4194H-4.42833V71.2196L-3.67102 70.3781C-3.55883 70.2509 -3.4817 70.1477 -3.43962 70.0686C-3.39655 69.9885 -3.37501 69.9058 -3.37501 69.8207C-3.37501 69.7065 -3.40957 69.6128 -3.47869 69.5397C-3.54781 69.4666 -3.63997 69.43 -3.75517 69.43C-3.89341 69.43 -4.00109 69.4696 -4.07823 69.5487C-4.15436 69.6268 -4.19242 69.736 -4.19242 69.8763H-4.4704C-4.4704 69.6749 -4.40579 69.5121 -4.27657 69.3879C-4.14634 69.2637 -3.97254 69.2016 -3.75517 69.2016C-3.55182 69.2016 -3.39104 69.2552 -3.27284 69.3624C-3.15463 69.4686 -3.09553 69.6103 -3.09553 69.7876C-3.09553 70.003 -3.23277 70.2594 -3.50724 70.5569L-4.09325 71.1925H-2.99486V71.4194ZM-1.32848 70.4863C-1.32848 70.8119 -1.38408 71.0538 -1.49527 71.2121C-1.60646 71.3703 -1.78026 71.4495 -2.01667 71.4495C-2.25007 71.4495 -2.42287 71.3724 -2.53506 71.2181C-2.64726 71.0628 -2.70536 70.8314 -2.70936 70.5239V70.1527C-2.70936 69.8312 -2.65377 69.5923 -2.54258 69.436C-2.43138 69.2797 -2.25708 69.2016 -2.01967 69.2016C-1.78427 69.2016 -1.61097 69.2772 -1.49978 69.4285C-1.38858 69.5788 -1.33149 69.8112 -1.32848 70.1257V70.4863ZM-1.60646 70.1062C-1.60646 69.8708 -1.63952 69.6995 -1.70563 69.5923C-1.77175 69.4841 -1.87643 69.43 -2.01967 69.43C-2.16192 69.43 -2.2656 69.4836 -2.33071 69.5908C-2.39582 69.698 -2.42938 69.8627 -2.43138 70.0851V70.5299C-2.43138 70.7663 -2.39733 70.9411 -2.32921 71.0543C-2.26009 71.1665 -2.15591 71.2226 -2.01667 71.2226C-1.87943 71.2226 -1.77776 71.1695 -1.71164 71.0633C-1.64453 70.9571 -1.60947 70.7898 -1.60646 70.5615V70.1062ZM-0.0587886 71.4194H-0.338271V69.5667L-0.898739 69.7726V69.5202L-0.102364 69.2211H-0.0587886V71.4194ZM0.883338 70.3225L0.99453 69.2317H2.11546V69.4886H1.23044L1.16432 70.0851C1.27151 70.022 1.39322 69.9905 1.52945 69.9905C1.7288 69.9905 1.88707 70.0566 2.00427 70.1888C2.12148 70.32 2.18008 70.4978 2.18008 70.7222C2.18008 70.9476 2.11897 71.1254 1.99676 71.2557C1.87555 71.3849 1.70576 71.4495 1.48738 71.4495C1.29405 71.4495 1.13627 71.3959 1.01406 71.2887C0.891852 71.1815 0.822232 71.0333 0.805203 70.8439H1.06816C1.08519 70.9692 1.12976 71.0638 1.20189 71.1279C1.27401 71.191 1.36918 71.2226 1.48738 71.2226C1.6166 71.2226 1.71778 71.1785 1.7909 71.0904C1.86503 71.0022 1.9021 70.8805 1.9021 70.7252C1.9021 70.579 1.86203 70.4618 1.78189 70.3736C1.70275 70.2845 1.59707 70.2399 1.46484 70.2399C1.34363 70.2399 1.24847 70.2664 1.17935 70.3195L1.10572 70.3796L0.883338 70.3225Z" fill="#F5F7F6"/>
<path d="M7.55224 71.4194H6.11876V71.2196L6.87607 70.3781C6.98827 70.2509 7.0654 70.1477 7.10747 70.0686C7.15055 69.9885 7.17208 69.9058 7.17208 69.8207C7.17208 69.7065 7.13752 69.6128 7.0684 69.5397C6.99928 69.4666 6.90713 69.43 6.79193 69.43C6.65369 69.43 6.546 69.4696 6.46887 69.5487C6.39274 69.6268 6.35467 69.736 6.35467 69.8763H6.07669C6.07669 69.6749 6.1413 69.5121 6.27053 69.3879C6.40075 69.2637 6.57455 69.2016 6.79193 69.2016C6.99528 69.2016 7.15606 69.2552 7.27426 69.3624C7.39246 69.4686 7.45157 69.6103 7.45157 69.7876C7.45157 70.003 7.31433 70.2594 7.03985 70.5569L6.45384 71.1925H7.55224V71.4194ZM9.21862 70.4863C9.21862 70.8119 9.16302 71.0538 9.05183 71.2121C8.94064 71.3703 8.76684 71.4495 8.53043 71.4495C8.29702 71.4495 8.12423 71.3724 8.01203 71.2181C7.89984 71.0628 7.84174 70.8314 7.83773 70.5239V70.1527C7.83773 69.8312 7.89333 69.5923 8.00452 69.436C8.11571 69.2797 8.29001 69.2016 8.52742 69.2016C8.76283 69.2016 8.93613 69.2772 9.04732 69.4285C9.15851 69.5788 9.21561 69.8112 9.21862 70.1257V70.4863ZM8.94064 70.1062C8.94064 69.8708 8.90758 69.6995 8.84146 69.5923C8.77535 69.4841 8.67067 69.43 8.52742 69.43C8.38518 69.43 8.2815 69.4836 8.21639 69.5908C8.15127 69.698 8.11772 69.8627 8.11571 70.0851V70.5299C8.11571 70.7663 8.14977 70.9411 8.21789 71.0543C8.28701 71.1665 8.39119 71.2226 8.53043 71.2226C8.66766 71.2226 8.76934 71.1695 8.83545 71.0633C8.90257 70.9571 8.93763 70.7898 8.94064 70.5615V70.1062ZM10.4883 71.4194H10.2088V69.5667L9.64836 69.7726V69.5202L10.4447 69.2211H10.4883V71.4194ZM12.3936 69.2302V69.4661H12.3425C12.1261 69.4701 11.9538 69.5342 11.8256 69.6584C11.6974 69.7826 11.6233 69.9574 11.6032 70.1828C11.7184 70.0506 11.8757 69.9845 12.075 69.9845C12.2654 69.9845 12.4171 70.0516 12.5303 70.1858C12.6445 70.32 12.7016 70.4933 12.7016 70.7057C12.7016 70.9311 12.64 71.1114 12.5168 71.2466C12.3946 71.3819 12.2303 71.4495 12.024 71.4495C11.8146 71.4495 11.6448 71.3693 11.5146 71.2091C11.3844 71.0478 11.3192 70.8404 11.3192 70.587V70.4803C11.3192 70.0776 11.4049 69.7701 11.5762 69.5577C11.7485 69.3444 12.0044 69.2352 12.344 69.2302H12.3936ZM12.0285 70.2159C11.9333 70.2159 11.8457 70.2444 11.7655 70.3015C11.6854 70.3586 11.6298 70.4302 11.5987 70.5164V70.6186C11.5987 70.7989 11.6393 70.9441 11.7204 71.0543C11.8016 71.1645 11.9027 71.2196 12.024 71.2196C12.1492 71.2196 12.2473 71.1735 12.3185 71.0813C12.3906 70.9892 12.4267 70.8685 12.4267 70.7192C12.4267 70.569 12.3901 70.4478 12.317 70.3556C12.2448 70.2624 12.1487 70.2159 12.0285 70.2159Z" fill="#F5F7F6"/>
<path d="M17.9681 71.4194H16.5346V71.2196L17.2919 70.3781C17.4041 70.2509 17.4813 70.1477 17.5233 70.0686C17.5664 69.9885 17.5879 69.9058 17.5879 69.8207C17.5879 69.7065 17.5534 69.6128 17.4843 69.5397C17.4151 69.4666 17.323 69.43 17.2078 69.43C17.0696 69.43 16.9619 69.4696 16.8847 69.5487C16.8086 69.6268 16.7705 69.736 16.7705 69.8763H16.4926C16.4926 69.6749 16.5572 69.5121 16.6864 69.3879C16.8166 69.2637 16.9904 69.2016 17.2078 69.2016C17.4111 69.2016 17.5719 69.2552 17.6901 69.3624C17.8083 69.4686 17.8674 69.6103 17.8674 69.7876C17.8674 70.003 17.7302 70.2594 17.4557 70.5569L16.8697 71.1925H17.9681V71.4194ZM19.6345 70.4863C19.6345 70.8119 19.5789 71.0538 19.4677 71.2121C19.3565 71.3703 19.1827 71.4495 18.9463 71.4495C18.7129 71.4495 18.5401 71.3724 18.4279 71.2181C18.3157 71.0628 18.2576 70.8314 18.2536 70.5239V70.1527C18.2536 69.8312 18.3092 69.5923 18.4204 69.436C18.5316 69.2797 18.7059 69.2016 18.9433 69.2016C19.1787 69.2016 19.352 69.2772 19.4632 69.4285C19.5744 69.5788 19.6315 69.8112 19.6345 70.1257V70.4863ZM19.3565 70.1062C19.3565 69.8708 19.3234 69.6995 19.2573 69.5923C19.1912 69.4841 19.0865 69.43 18.9433 69.43C18.801 69.43 18.6974 69.4836 18.6322 69.5908C18.5671 69.698 18.5336 69.8627 18.5316 70.0851V70.5299C18.5316 70.7663 18.5656 70.9411 18.6338 71.0543C18.7029 71.1665 18.8071 71.2226 18.9463 71.2226C19.0835 71.2226 19.1852 71.1695 19.2513 71.0633C19.3184 70.9571 19.3535 70.7898 19.3565 70.5615V70.1062ZM20.9042 71.4194H20.6247V69.5667L20.0642 69.7726V69.5202L20.8606 69.2211H20.9042V71.4194ZM23.131 69.3879L22.225 71.4194H21.9334L22.8365 69.4601H21.6525V69.2317H23.131V69.3879Z" fill="#F5F7F6"/>
<path d="M27.8128 71.4194H26.3793V71.2196L27.1366 70.3781C27.2488 70.2509 27.326 70.1477 27.368 70.0686C27.4111 69.9885 27.4327 69.9058 27.4327 69.8207C27.4327 69.7065 27.3981 69.6128 27.329 69.5397C27.2599 69.4666 27.1677 69.43 27.0525 69.43C26.9143 69.43 26.8066 69.4696 26.7294 69.5487C26.6533 69.6268 26.6152 69.736 26.6152 69.8763H26.3373C26.3373 69.6749 26.4019 69.5121 26.5311 69.3879C26.6613 69.2637 26.8351 69.2016 27.0525 69.2016C27.2559 69.2016 27.4166 69.2552 27.5348 69.3624C27.653 69.4686 27.7121 69.6103 27.7121 69.7876C27.7121 70.003 27.5749 70.2594 27.3004 70.5569L26.7144 71.1925H27.8128V71.4194ZM29.4792 70.4863C29.4792 70.8119 29.4236 71.0538 29.3124 71.2121C29.2012 71.3703 29.0274 71.4495 28.791 71.4495C28.5576 71.4495 28.3848 71.3724 28.2726 71.2181C28.1604 71.0628 28.1023 70.8314 28.0983 70.5239V70.1527C28.0983 69.8312 28.1539 69.5923 28.2651 69.436C28.3763 69.2797 28.5506 69.2016 28.788 69.2016C29.0234 69.2016 29.1967 69.2772 29.3079 69.4285C29.4191 69.5788 29.4762 69.8112 29.4792 70.1257V70.4863ZM29.2012 70.1062C29.2012 69.8708 29.1682 69.6995 29.102 69.5923C29.0359 69.4841 28.9312 69.43 28.788 69.43C28.6458 69.43 28.5421 69.4836 28.477 69.5908C28.4118 69.698 28.3783 69.8627 28.3763 70.0851V70.5299C28.3763 70.7663 28.4103 70.9411 28.4785 71.0543C28.5476 71.1665 28.6518 71.2226 28.791 71.2226C28.9282 71.2226 29.0299 71.1695 29.096 71.0633C29.1631 70.9571 29.1982 70.7898 29.2012 70.5615V70.1062ZM30.7489 71.4194H30.4694V69.5667L29.9089 69.7726V69.5202L30.7053 69.2211H30.7489V71.4194ZM32.8901 69.8026C32.8901 69.9118 32.861 70.009 32.8029 70.0941C32.7458 70.1793 32.6682 70.2459 32.57 70.294C32.6842 70.3431 32.7744 70.4147 32.8405 70.5089C32.9076 70.603 32.9412 70.7097 32.9412 70.8289C32.9412 71.0182 32.8771 71.169 32.7488 71.2812C32.6216 71.3934 32.4538 71.4495 32.2455 71.4495C32.0351 71.4495 31.8663 71.3934 31.7391 71.2812C31.6129 71.168 31.5498 71.0172 31.5498 70.8289C31.5498 70.7107 31.5818 70.604 31.6459 70.5089C31.711 70.4137 31.8007 70.3416 31.9149 70.2925C31.8177 70.2444 31.7411 70.1778 31.685 70.0926C31.6289 70.0075 31.6009 69.9108 31.6009 69.8026C31.6009 69.6183 31.66 69.4721 31.7782 69.3639C31.8964 69.2557 32.0521 69.2016 32.2455 69.2016C32.4378 69.2016 32.5931 69.2557 32.7113 69.3639C32.8305 69.4721 32.8901 69.6183 32.8901 69.8026ZM32.6632 70.8229C32.6632 70.7007 32.6241 70.601 32.546 70.5239C32.4689 70.4468 32.3677 70.4082 32.2425 70.4082C32.1172 70.4082 32.0166 70.4463 31.9404 70.5224C31.8653 70.5985 31.8277 70.6987 31.8277 70.8229C31.8277 70.9471 31.8643 71.0448 31.9374 71.1159C32.0116 71.187 32.1142 71.2226 32.2455 71.2226C32.3757 71.2226 32.4779 71.187 32.552 71.1159C32.6261 71.0438 32.6632 70.9461 32.6632 70.8229ZM32.2455 69.43C32.1363 69.43 32.0476 69.4641 31.9795 69.5322C31.9124 69.5993 31.8788 69.6909 31.8788 69.8072C31.8788 69.9183 31.9119 70.0085 31.978 70.0776C32.0451 70.1457 32.1343 70.1798 32.2455 70.1798C32.3567 70.1798 32.4453 70.1457 32.5114 70.0776C32.5785 70.0085 32.6121 69.9183 32.6121 69.8072C32.6121 69.696 32.5775 69.6053 32.5084 69.5352C32.4393 69.4651 32.3516 69.43 32.2455 69.43Z" fill="#F5F7F6"/>
<path d="M38.0533 71.4194H36.6198V71.2196L37.3771 70.3781C37.4893 70.2509 37.5665 70.1477 37.6085 70.0686C37.6516 69.9885 37.6731 69.9058 37.6731 69.8207C37.6731 69.7065 37.6386 69.6128 37.5695 69.5397C37.5003 69.4666 37.4082 69.43 37.293 69.43C37.1547 69.43 37.0471 69.4696 36.9699 69.5487C36.8938 69.6268 36.8557 69.736 36.8557 69.8763H36.5778C36.5778 69.6749 36.6424 69.5121 36.7716 69.3879C36.9018 69.2637 37.0756 69.2016 37.293 69.2016C37.4963 69.2016 37.6571 69.2552 37.7753 69.3624C37.8935 69.4686 37.9526 69.6103 37.9526 69.7876C37.9526 70.003 37.8154 70.2594 37.5409 70.5569L36.9549 71.1925H38.0533V71.4194ZM39.7197 70.4863C39.7197 70.8119 39.6641 71.0538 39.5529 71.2121C39.4417 71.3703 39.2679 71.4495 39.0315 71.4495C38.7981 71.4495 38.6253 71.3724 38.5131 71.2181C38.4009 71.0628 38.3428 70.8314 38.3388 70.5239V70.1527C38.3388 69.8312 38.3944 69.5923 38.5056 69.436C38.6168 69.2797 38.7911 69.2016 39.0285 69.2016C39.2639 69.2016 39.4372 69.2772 39.5484 69.4285C39.6596 69.5788 39.7167 69.8112 39.7197 70.1257V70.4863ZM39.4417 70.1062C39.4417 69.8708 39.4086 69.6995 39.3425 69.5923C39.2764 69.4841 39.1717 69.43 39.0285 69.43C38.8862 69.43 38.7826 69.4836 38.7174 69.5908C38.6523 69.698 38.6188 69.8627 38.6168 70.0851V70.5299C38.6168 70.7663 38.6508 70.9411 38.7189 71.0543C38.7881 71.1665 38.8922 71.2226 39.0315 71.2226C39.1687 71.2226 39.2704 71.1695 39.3365 71.0633C39.4036 70.9571 39.4387 70.7898 39.4417 70.5615V70.1062ZM40.9894 71.4194H40.7099V69.5667L40.1494 69.7726V69.5202L40.9458 69.2211H40.9894V71.4194ZM42.8691 70.4578C42.811 70.5269 42.7414 70.5825 42.6603 70.6246C42.5801 70.6666 42.492 70.6877 42.3958 70.6877C42.2696 70.6877 42.1594 70.6566 42.0652 70.5945C41.9721 70.5324 41.8999 70.4453 41.8489 70.3331C41.7978 70.2199 41.7722 70.0951 41.7722 69.9589C41.7722 69.8127 41.7998 69.6809 41.8549 69.5637C41.911 69.4465 41.9901 69.3569 42.0923 69.2948C42.1944 69.2327 42.3137 69.2016 42.4499 69.2016C42.6663 69.2016 42.8366 69.2827 42.9608 69.445C43.086 69.6063 43.1486 69.8267 43.1486 70.1062V70.1873C43.1486 70.613 43.0645 70.9241 42.8962 71.1204C42.7279 71.3158 42.4739 71.4159 42.1343 71.4209H42.0803V71.1865H42.1389C42.3682 71.1825 42.5446 71.1229 42.6678 71.0077C42.791 70.8915 42.8581 70.7082 42.8691 70.4578ZM42.4409 70.4578C42.534 70.4578 42.6197 70.4292 42.6978 70.3721C42.777 70.315 42.8346 70.2444 42.8706 70.1603V70.0491C42.8706 69.8668 42.831 69.7185 42.7519 69.6043C42.6728 69.4901 42.5726 69.433 42.4514 69.433C42.3292 69.433 42.231 69.4801 42.1569 69.5742C42.0828 69.6674 42.0457 69.7906 42.0457 69.9439C42.0457 70.0931 42.0813 70.2164 42.1524 70.3135C42.2245 70.4097 42.3207 70.4578 42.4409 70.4578Z" fill="#F5F7F6"/>
<path d="M48.601 71.4194H47.1675V71.2196L47.9248 70.3781C48.037 70.2509 48.1142 70.1477 48.1562 70.0686C48.1993 69.9885 48.2208 69.9058 48.2208 69.8207C48.2208 69.7065 48.1863 69.6128 48.1172 69.5397C48.048 69.4666 47.9559 69.43 47.8407 69.43C47.7024 69.43 47.5948 69.4696 47.5176 69.5487C47.4415 69.6268 47.4034 69.736 47.4034 69.8763H47.1254C47.1254 69.6749 47.1901 69.5121 47.3193 69.3879C47.4495 69.2637 47.6233 69.2016 47.8407 69.2016C48.044 69.2016 48.2048 69.2552 48.323 69.3624C48.4412 69.4686 48.5003 69.6103 48.5003 69.7876C48.5003 70.003 48.3631 70.2594 48.0886 70.5569L47.5026 71.1925H48.601V71.4194ZM50.2674 70.4863C50.2674 70.8119 50.2118 71.0538 50.1006 71.2121C49.9894 71.3703 49.8156 71.4495 49.5792 71.4495C49.3458 71.4495 49.173 71.3724 49.0608 71.2181C48.9486 71.0628 48.8905 70.8314 48.8865 70.5239V70.1527C48.8865 69.8312 48.9421 69.5923 49.0533 69.436C49.1645 69.2797 49.3388 69.2016 49.5762 69.2016C49.8116 69.2016 49.9849 69.2772 50.0961 69.4285C50.2073 69.5788 50.2644 69.8112 50.2674 70.1257V70.4863ZM49.9894 70.1062C49.9894 69.8708 49.9563 69.6995 49.8902 69.5923C49.8241 69.4841 49.7194 69.43 49.5762 69.43C49.4339 69.43 49.3302 69.4836 49.2651 69.5908C49.2 69.698 49.1665 69.8627 49.1645 70.0851V70.5299C49.1645 70.7663 49.1985 70.9411 49.2666 71.0543C49.3358 71.1665 49.4399 71.2226 49.5792 71.2226C49.7164 71.2226 49.8181 71.1695 49.8842 71.0633C49.9513 70.9571 49.9864 70.7898 49.9894 70.5615V70.1062ZM52.057 71.4194H50.6235V71.2196L51.3808 70.3781C51.493 70.2509 51.5701 70.1477 51.6122 70.0686C51.6553 69.9885 51.6768 69.9058 51.6768 69.8207C51.6768 69.7065 51.6422 69.6128 51.5731 69.5397C51.504 69.4666 51.4118 69.43 51.2966 69.43C51.1584 69.43 51.0507 69.4696 50.9736 69.5487C50.8975 69.6268 50.8594 69.736 50.8594 69.8763H50.5814C50.5814 69.6749 50.646 69.5121 50.7752 69.3879C50.9055 69.2637 51.0793 69.2016 51.2966 69.2016C51.5 69.2016 51.6608 69.2552 51.779 69.3624C51.8972 69.4686 51.9563 69.6103 51.9563 69.7876C51.9563 70.003 51.819 70.2594 51.5446 70.5569L50.9586 71.1925H52.057V71.4194ZM53.7233 70.4863C53.7233 70.8119 53.6677 71.0538 53.5565 71.2121C53.4454 71.3703 53.2716 71.4495 53.0351 71.4495C52.8017 71.4495 52.6289 71.3724 52.5168 71.2181C52.4046 71.0628 52.3465 70.8314 52.3424 70.5239V70.1527C52.3424 69.8312 52.398 69.5923 52.5092 69.436C52.6204 69.2797 52.7947 69.2016 53.0321 69.2016C53.2675 69.2016 53.4408 69.2772 53.552 69.4285C53.6632 69.5788 53.7203 69.8112 53.7233 70.1257V70.4863ZM53.4454 70.1062C53.4454 69.8708 53.4123 69.6995 53.3462 69.5923C53.2801 69.4841 53.1754 69.43 53.0321 69.43C52.8899 69.43 52.7862 69.4836 52.7211 69.5908C52.656 69.698 52.6224 69.8627 52.6204 70.0851V70.5299C52.6204 70.7663 52.6545 70.9411 52.7226 71.0543C52.7917 71.1665 52.8959 71.2226 53.0351 71.2226C53.1724 71.2226 53.2741 71.1695 53.3402 71.0633C53.4073 70.9571 53.4423 70.7898 53.4454 70.5615V70.1062Z" fill="#F5F7F6"/>
<path d="M59.0604 71.4194H57.6269V71.2196L58.3842 70.3781C58.4964 70.2509 58.5736 70.1477 58.6156 70.0686C58.6587 69.9885 58.6802 69.9058 58.6802 69.8207C58.6802 69.7065 58.6457 69.6128 58.5766 69.5397C58.5074 69.4666 58.4153 69.43 58.3001 69.43C58.1619 69.43 58.0542 69.4696 57.977 69.5487C57.9009 69.6268 57.8628 69.736 57.8628 69.8763H57.5849C57.5849 69.6749 57.6495 69.5121 57.7787 69.3879C57.9089 69.2637 58.0827 69.2016 58.3001 69.2016C58.5034 69.2016 58.6642 69.2552 58.7824 69.3624C58.9006 69.4686 58.9597 69.6103 58.9597 69.7876C58.9597 70.003 58.8225 70.2594 58.548 70.5569L57.962 71.1925H59.0604V71.4194ZM60.7268 70.4863C60.7268 70.8119 60.6712 71.0538 60.56 71.2121C60.4488 71.3703 60.275 71.4495 60.0386 71.4495C59.8052 71.4495 59.6324 71.3724 59.5202 71.2181C59.408 71.0628 59.3499 70.8314 59.3459 70.5239V70.1527C59.3459 69.8312 59.4015 69.5923 59.5127 69.436C59.6239 69.2797 59.7982 69.2016 60.0356 69.2016C60.271 69.2016 60.4443 69.2772 60.5555 69.4285C60.6667 69.5788 60.7238 69.8112 60.7268 70.1257V70.4863ZM60.4488 70.1062C60.4488 69.8708 60.4157 69.6995 60.3496 69.5923C60.2835 69.4841 60.1788 69.43 60.0356 69.43C59.8933 69.43 59.7897 69.4836 59.7245 69.5908C59.6594 69.698 59.6259 69.8627 59.6239 70.0851V70.5299C59.6239 70.7663 59.6579 70.9411 59.7261 71.0543C59.7952 71.1665 59.8994 71.2226 60.0386 71.2226C60.1758 71.2226 60.2775 71.1695 60.3436 71.0633C60.4107 70.9571 60.4458 70.7898 60.4488 70.5615V70.1062ZM62.5164 71.4194H61.0829V71.2196L61.8402 70.3781C61.9524 70.2509 62.0295 70.1477 62.0716 70.0686C62.1147 69.9885 62.1362 69.9058 62.1362 69.8207C62.1362 69.7065 62.1017 69.6128 62.0325 69.5397C61.9634 69.4666 61.8713 69.43 61.7561 69.43C61.6178 69.43 61.5101 69.4696 61.433 69.5487C61.3569 69.6268 61.3188 69.736 61.3188 69.8763H61.0408C61.0408 69.6749 61.1054 69.5121 61.2347 69.3879C61.3649 69.2637 61.5387 69.2016 61.7561 69.2016C61.9594 69.2016 62.1202 69.2552 62.2384 69.3624C62.3566 69.4686 62.4157 69.6103 62.4157 69.7876C62.4157 70.003 62.2785 70.2594 62.004 70.5569L61.418 71.1925H62.5164V71.4194ZM63.7245 71.4194H63.445V69.5667L62.8845 69.7726V69.5202L63.6809 69.2211H63.7245V71.4194Z" fill="#F5F7F6"/>
<path d="M68.9713 71.4194H67.5378V71.2196L68.2952 70.3781C68.4073 70.2509 68.4845 70.1477 68.5266 70.0686C68.5696 69.9885 68.5912 69.9058 68.5912 69.8207C68.5912 69.7065 68.5566 69.6128 68.4875 69.5397C68.4184 69.4666 68.3262 69.43 68.211 69.43C68.0728 69.43 67.9651 69.4696 67.888 69.5487C67.8118 69.6268 67.7738 69.736 67.7738 69.8763H67.4958C67.4958 69.6749 67.5604 69.5121 67.6896 69.3879C67.8198 69.2637 67.9936 69.2016 68.211 69.2016C68.4144 69.2016 68.5751 69.2552 68.6933 69.3624C68.8115 69.4686 68.8706 69.6103 68.8706 69.7876C68.8706 70.003 68.7334 70.2594 68.4589 70.5569L67.8729 71.1925H68.9713V71.4194ZM70.6377 70.4863C70.6377 70.8119 70.5821 71.0538 70.4709 71.2121C70.3597 71.3703 70.1859 71.4495 69.9495 71.4495C69.7161 71.4495 69.5433 71.3724 69.4311 71.2181C69.3189 71.0628 69.2608 70.8314 69.2568 70.5239V70.1527C69.2568 69.8312 69.3124 69.5923 69.4236 69.436C69.5348 69.2797 69.7091 69.2016 69.9465 69.2016C70.1819 69.2016 70.3552 69.2772 70.4664 69.4285C70.5776 69.5788 70.6347 69.8112 70.6377 70.1257V70.4863ZM70.3597 70.1062C70.3597 69.8708 70.3267 69.6995 70.2605 69.5923C70.1944 69.4841 70.0898 69.43 69.9465 69.43C69.8043 69.43 69.7006 69.4836 69.6355 69.5908C69.5704 69.698 69.5368 69.8627 69.5348 70.0851V70.5299C69.5348 70.7663 69.5689 70.9411 69.637 71.0543C69.7061 71.1665 69.8103 71.2226 69.9495 71.2226C70.0867 71.2226 70.1884 71.1695 70.2545 71.0633C70.3217 70.9571 70.3567 70.7898 70.3597 70.5615V70.1062ZM72.4273 71.4194H70.9938V71.2196L71.7511 70.3781C71.8633 70.2509 71.9404 70.1477 71.9825 70.0686C72.0256 69.9885 72.0471 69.9058 72.0471 69.8207C72.0471 69.7065 72.0126 69.6128 71.9435 69.5397C71.8743 69.4666 71.7822 69.43 71.667 69.43C71.5287 69.43 71.4211 69.4696 71.3439 69.5487C71.2678 69.6268 71.2297 69.736 71.2297 69.8763H70.9517C70.9517 69.6749 71.0164 69.5121 71.1456 69.3879C71.2758 69.2637 71.4496 69.2016 71.667 69.2016C71.8703 69.2016 72.0311 69.2552 72.1493 69.3624C72.2675 69.4686 72.3266 69.6103 72.3266 69.7876C72.3266 70.003 72.1894 70.2594 71.9149 70.5569L71.3289 71.1925H72.4273V71.4194ZM74.1553 71.4194H72.7218V71.2196L73.4791 70.3781C73.5913 70.2509 73.6684 70.1477 73.7105 70.0686C73.7536 69.9885 73.7751 69.9058 73.7751 69.8207C73.7751 69.7065 73.7406 69.6128 73.6714 69.5397C73.6023 69.4666 73.5102 69.43 73.395 69.43C73.2567 69.43 73.149 69.4696 73.0719 69.5487C72.9958 69.6268 72.9577 69.736 72.9577 69.8763H72.6797C72.6797 69.6749 72.7443 69.5121 72.8736 69.3879C73.0038 69.2637 73.1776 69.2016 73.395 69.2016C73.5983 69.2016 73.7591 69.2552 73.8773 69.3624C73.9955 69.4686 74.0546 69.6103 74.0546 69.7876C74.0546 70.003 73.9174 70.2594 73.6429 70.5569L73.0569 71.1925H74.1553V71.4194Z" fill="#F5F7F6"/>
<path d="M78.9043 71.4194H77.4708V71.2196L78.2281 70.3781C78.3403 70.2509 78.4175 70.1477 78.4595 70.0686C78.5026 69.9885 78.5242 69.9058 78.5242 69.8207C78.5242 69.7065 78.4896 69.6128 78.4205 69.5397C78.3514 69.4666 78.2592 69.43 78.144 69.43C78.0058 69.43 77.8981 69.4696 77.8209 69.5487C77.7448 69.6268 77.7067 69.736 77.7067 69.8763H77.4288C77.4288 69.6749 77.4934 69.5121 77.6226 69.3879C77.7528 69.2637 77.9266 69.2016 78.144 69.2016C78.3474 69.2016 78.5081 69.2552 78.6263 69.3624C78.7445 69.4686 78.8036 69.6103 78.8036 69.7876C78.8036 70.003 78.6664 70.2594 78.3919 70.5569L77.8059 71.1925H78.9043V71.4194ZM80.5707 70.4863C80.5707 70.8119 80.5151 71.0538 80.4039 71.2121C80.2927 71.3703 80.1189 71.4495 79.8825 71.4495C79.6491 71.4495 79.4763 71.3724 79.3641 71.2181C79.2519 71.0628 79.1938 70.8314 79.1898 70.5239V70.1527C79.1898 69.8312 79.2454 69.5923 79.3566 69.436C79.4678 69.2797 79.6421 69.2016 79.8795 69.2016C80.1149 69.2016 80.2882 69.2772 80.3994 69.4285C80.5106 69.5788 80.5677 69.8112 80.5707 70.1257V70.4863ZM80.2927 70.1062C80.2927 69.8708 80.2597 69.6995 80.1935 69.5923C80.1274 69.4841 80.0227 69.43 79.8795 69.43C79.7373 69.43 79.6336 69.4836 79.5685 69.5908C79.5033 69.698 79.4698 69.8627 79.4678 70.0851V70.5299C79.4678 70.7663 79.5018 70.9411 79.57 71.0543C79.6391 71.1665 79.7433 71.2226 79.8825 71.2226C80.0197 71.2226 80.1214 71.1695 80.1875 71.0633C80.2546 70.9571 80.2897 70.7898 80.2927 70.5615V70.1062ZM82.3603 71.4194H80.9268V71.2196L81.6841 70.3781C81.7963 70.2509 81.8734 70.1477 81.9155 70.0686C81.9586 69.9885 81.9801 69.9058 81.9801 69.8207C81.9801 69.7065 81.9456 69.6128 81.8764 69.5397C81.8073 69.4666 81.7152 69.43 81.6 69.43C81.4617 69.43 81.354 69.4696 81.2769 69.5487C81.2008 69.6268 81.1627 69.736 81.1627 69.8763H80.8847C80.8847 69.6749 80.9493 69.5121 81.0786 69.3879C81.2088 69.2637 81.3826 69.2016 81.6 69.2016C81.8033 69.2016 81.9641 69.2552 82.0823 69.3624C82.2005 69.4686 82.2596 69.6103 82.2596 69.7876C82.2596 70.003 82.1224 70.2594 81.8479 70.5569L81.2619 71.1925H82.3603V71.4194ZM83.059 70.1903H83.2678C83.3991 70.1883 83.5023 70.1537 83.5774 70.0866C83.6525 70.0195 83.6901 69.9289 83.6901 69.8147C83.6901 69.5582 83.5624 69.43 83.3069 69.43C83.1867 69.43 83.0905 69.4646 83.0184 69.5337C82.9473 69.6018 82.9117 69.6925 82.9117 69.8056H82.6338C82.6338 69.6323 82.6969 69.4886 82.8231 69.3744C82.9503 69.2592 83.1116 69.2016 83.3069 69.2016C83.5133 69.2016 83.675 69.2562 83.7923 69.3654C83.9095 69.4746 83.9681 69.6263 83.9681 69.8207C83.9681 69.9158 83.937 70.008 83.8749 70.0972C83.8138 70.1863 83.7301 70.2529 83.624 70.297C83.7442 70.3351 83.8368 70.3982 83.9019 70.4863C83.9681 70.5745 84.0011 70.6822 84.0011 70.8094C84.0011 71.0057 83.937 71.1615 83.8088 71.2767C83.6806 71.3919 83.5138 71.4495 83.3084 71.4495C83.1031 71.4495 82.9358 71.3939 82.8065 71.2827C82.6783 71.1715 82.6142 71.0248 82.6142 70.8424H82.8937C82.8937 70.9576 82.9313 71.0498 83.0064 71.1189C83.0815 71.188 83.1822 71.2226 83.3084 71.2226C83.4426 71.2226 83.5453 71.1875 83.6164 71.1174C83.6876 71.0473 83.7231 70.9466 83.7231 70.8154C83.7231 70.6882 83.6841 70.5905 83.6059 70.5224C83.5278 70.4543 83.4151 70.4192 83.2678 70.4172H83.059V70.1903Z" fill="#F5F7F6"/>
<path d="M89.123 71.4194H87.6896V71.2196L88.4469 70.3781C88.5591 70.2509 88.6362 70.1477 88.6783 70.0686C88.7213 69.9885 88.7429 69.9058 88.7429 69.8207C88.7429 69.7065 88.7083 69.6128 88.6392 69.5397C88.5701 69.4666 88.4779 69.43 88.3627 69.43C88.2245 69.43 88.1168 69.4696 88.0397 69.5487C87.9635 69.6268 87.9255 69.736 87.9255 69.8763H87.6475C87.6475 69.6749 87.7121 69.5121 87.8413 69.3879C87.9715 69.2637 88.1453 69.2016 88.3627 69.2016C88.5661 69.2016 88.7268 69.2552 88.8451 69.3624C88.9633 69.4686 89.0224 69.6103 89.0224 69.7876C89.0224 70.003 88.8851 70.2594 88.6106 70.5569L88.0246 71.1925H89.123V71.4194ZM90.7894 70.4863C90.7894 70.8119 90.7338 71.0538 90.6226 71.2121C90.5114 71.3703 90.3376 71.4495 90.1012 71.4495C89.8678 71.4495 89.695 71.3724 89.5828 71.2181C89.4706 71.0628 89.4125 70.8314 89.4085 70.5239V70.1527C89.4085 69.8312 89.4641 69.5923 89.5753 69.436C89.6865 69.2797 89.8608 69.2016 90.0982 69.2016C90.3336 69.2016 90.5069 69.2772 90.6181 69.4285C90.7293 69.5788 90.7864 69.8112 90.7894 70.1257V70.4863ZM90.5114 70.1062C90.5114 69.8708 90.4784 69.6995 90.4123 69.5923C90.3461 69.4841 90.2415 69.43 90.0982 69.43C89.956 69.43 89.8523 69.4836 89.7872 69.5908C89.7221 69.698 89.6885 69.8627 89.6865 70.0851V70.5299C89.6865 70.7663 89.7206 70.9411 89.7887 71.0543C89.8578 71.1665 89.962 71.2226 90.1012 71.2226C90.2385 71.2226 90.3401 71.1695 90.4062 71.0633C90.4734 70.9571 90.5084 70.7898 90.5114 70.5615V70.1062ZM92.579 71.4194H91.1455V71.2196L91.9028 70.3781C92.015 70.2509 92.0922 70.1477 92.1342 70.0686C92.1773 69.9885 92.1988 69.9058 92.1988 69.8207C92.1988 69.7065 92.1643 69.6128 92.0952 69.5397C92.026 69.4666 91.9339 69.43 91.8187 69.43C91.6804 69.43 91.5728 69.4696 91.4956 69.5487C91.4195 69.6268 91.3814 69.736 91.3814 69.8763H91.1035C91.1035 69.6749 91.1681 69.5121 91.2973 69.3879C91.4275 69.2637 91.6013 69.2016 91.8187 69.2016C92.022 69.2016 92.1828 69.2552 92.301 69.3624C92.4192 69.4686 92.4783 69.6103 92.4783 69.7876C92.4783 70.003 92.3411 70.2594 92.0666 70.5569L91.4806 71.1925H92.579V71.4194ZM94.047 70.6847H94.3506V70.9116H94.047V71.4194H93.7676V70.9116H92.7713V70.7478L93.751 69.2317H94.047V70.6847ZM93.0869 70.6847H93.7676V69.6118L93.7345 69.6719L93.0869 70.6847Z" fill="#F5F7F6"/>
<path d="M90.5839 34.9868H80.1384L70.0508 27.6187L60.0516 35.5121L49.699 31.742L39.8765 46.6502H29.5286L19.362 54.1717L9.45104 42.6849L-0.636528 46.5433V65.8166H90.649L90.5839 34.9868Z" fill="url(#paint0_linear_736_5690)"/>
<path d="M19.32 54.5297L9.37192 42.9964L-0.543641 46.7897L-0.729584 46.2969L9.52997 42.3734L19.3991 53.8184L29.4401 46.3899H39.7369L49.5967 31.4212L60.005 35.2145L70.0414 27.2886L80.222 34.7218H90.5838V35.2517H80.05L70.0554 27.9487L60.098 35.8095L49.8059 32.0581L40.0205 46.9152H29.6121L19.32 54.5297Z" fill="url(#paint1_linear_736_5690)"/>
<path d="M0.488409 46.5432C0.488409 47.1661 -0.0136517 47.6682 -0.636571 47.6682C-1.25949 47.6682 -1.76154 47.1661 -1.76154 46.5432C-1.76154 45.9203 -1.25949 45.4182 -0.636571 45.4182C-0.0136517 45.4182 0.488409 45.9203 0.488409 46.5432Z" fill="#F5F7F6"/>
<path d="M10.5759 42.6848C10.5759 43.3077 10.0738 43.8098 9.45093 43.8098C8.82801 43.8098 8.32595 43.3077 8.32595 42.6848C8.32595 42.0619 8.82801 41.5598 9.45093 41.5598C10.0738 41.5552 10.5759 42.0619 10.5759 42.6848Z" fill="#F5F7F6"/>
<path d="M20.4868 54.1719C20.4868 54.7948 19.9801 55.2968 19.3618 55.2968C18.7389 55.2968 18.2369 54.7901 18.2369 54.1719C18.2369 53.5489 18.7389 53.0469 19.3618 53.0469C19.9848 53.0469 20.4868 53.5489 20.4868 54.1719Z" fill="#F5F7F6"/>
<path d="M30.6533 46.6501C30.6533 47.273 30.1513 47.7751 29.5284 47.7751C28.9055 47.7751 28.4034 47.2684 28.4034 46.6501C28.4034 46.0272 28.9055 45.5251 29.5284 45.5251C30.1513 45.5251 30.6533 46.0318 30.6533 46.6501Z" fill="#F5F7F6"/>
<path d="M41.006 46.6501C41.006 47.273 40.5039 47.7751 39.881 47.7751C39.2581 47.7751 38.756 47.2684 38.756 46.6501C38.756 46.0272 39.2627 45.5251 39.881 45.5251C40.4993 45.5251 41.006 46.0318 41.006 46.6501Z" fill="#F5F7F6"/>
<path d="M50.8286 31.7419C50.8286 32.3648 50.3266 32.8669 49.7036 32.8669C49.0807 32.8669 48.5787 32.3602 48.5787 31.7419C48.5787 31.119 49.0807 30.6169 49.7036 30.6169C50.3219 30.6169 50.8286 31.119 50.8286 31.7419Z" fill="#F5F7F6"/>
<path d="M61.1765 35.5122C61.1765 36.1351 60.6744 36.6372 60.0515 36.6372C59.4286 36.6372 58.9265 36.1351 58.9265 35.5122C58.9265 34.8893 59.4286 34.3872 60.0515 34.3872C60.6744 34.3872 61.1765 34.8893 61.1765 35.5122Z" fill="#F5F7F6"/>
<path d="M71.1757 27.6186C71.1757 28.2415 70.669 28.7436 70.0507 28.7436C69.4278 28.7436 68.9257 28.2369 68.9257 27.6186C68.9257 26.9957 69.4278 26.4937 70.0507 26.4937C70.6736 26.4937 71.1757 26.9957 71.1757 27.6186Z" fill="#F5F7F6"/>
<path d="M81.2632 34.9868C81.2632 35.6097 80.7611 36.1118 80.1382 36.1118C79.5153 36.1118 79.0132 35.6097 79.0132 34.9868C79.0132 34.3639 79.5153 33.8618 80.1382 33.8618C80.7565 33.8618 81.2632 34.3639 81.2632 34.9868Z" fill="#F5F7F6"/>
<path d="M91.7089 35.0285C91.7089 35.6515 91.2022 36.1535 90.5839 36.1535C89.961 36.1535 89.4589 35.6468 89.4589 35.0285C89.4589 34.4056 89.961 33.9036 90.5839 33.9036C91.2022 33.9036 91.7089 34.4103 91.7089 35.0285Z" fill="#F5F7F6"/>
<defs>
<linearGradient id="paint0_linear_736_5690" x1="45.0058" y1="71.7372" x2="45.0058" y2="34.1957" gradientUnits="userSpaceOnUse">
<stop offset="0.0101" stop-color="white" stop-opacity="0"/>
<stop offset="1" stop-color="white"/>
</linearGradient>
<linearGradient id="paint1_linear_736_5690" x1="-0.5706" y1="40.9092" x2="70.8708" y2="40.9092" gradientUnits="userSpaceOnUse">
<stop stop-color="#00EAD1"/>
<stop offset="0.1291" stop-color="#00E0D1"/>
<stop offset="0.3516" stop-color="#00C4CF"/>
<stop offset="0.6406" stop-color="#0097CE"/>
<stop offset="0.9819" stop-color="#0058CB"/>
<stop offset="0.9999" stop-color="#0055CB"/>
</linearGradient>
</defs>
</svg>
