<svg width="126" height="42" viewBox="0 0 126 42" fill="none" xmlns="http://www.w3.org/2000/svg">
<g opacity="0.5">
<path d="M-45.5135 1.60318H-52V40.5225H-44.4864V15.1168L-26.6484 40.5225H-20.1619V1.60318H-27.6214V27.0088L-45.5135 1.60318Z" fill="#372B43"/>
<path d="M5.19312 41.3333C10.5986 41.3333 15.95 39.2792 19.5176 34.9549C22.7068 31.0629 23.9501 26.4683 24.0582 21.0628C23.9501 15.8736 22.8149 11.1168 19.5176 7.11675C16.0581 2.90049 10.8148 0.792358 5.19312 0.792358C-0.428558 0.792358 -5.72591 2.84643 -9.13134 7.11675C-12.2665 10.9006 -13.6719 15.8736 -13.6719 21.0628C-13.6719 26.2521 -12.2665 31.171 -9.13134 34.9549C-5.77996 39.1711 -0.374504 41.3333 5.19312 41.3333ZM5.19312 34.4143C1.84174 34.4684 -1.40154 33.117 -3.29345 30.5224C-5.29347 27.9278 -5.88807 24.4683 -5.94212 21.0628C-5.88807 17.6574 -5.29347 14.1438 -3.29345 11.6033C-1.40154 9.00865 1.84174 7.65729 5.19312 7.71135C8.5445 7.65729 11.7337 9.00865 13.6797 11.6033C15.6257 14.1438 16.2743 17.6574 16.2743 21.0628C16.2743 24.4683 15.6257 27.9278 13.6797 30.5224C11.7337 33.117 8.5445 34.4684 5.19312 34.4143Z" fill="#372B43"/>
<path d="M57.5956 1.60318H25.7035V8.9546H37.9738V40.5225H45.3253V8.9546H57.5956V1.60318Z" fill="#372B43"/>
<path d="M84.5486 40.5225H92.1163L80.2242 1.60318H69.2512L57.3592 40.5225H64.9268L66.7647 34.4684H82.6567L84.5486 40.5225ZM68.8728 27.5494L74.6566 8.52216L80.5486 27.5494H68.8728Z" fill="#372B43"/>
<path d="M122.897 21.5493C122.302 20.7926 121.654 20.0898 120.951 19.4412C121.005 19.3871 121.113 19.279 121.167 19.1709C122.627 17.3331 123.492 14.9547 123.438 12.6844C123.383 10.306 122.627 7.92756 121.167 6.08971C119.87 4.1978 117.87 2.79238 115.6 2.14372C114.518 1.76534 113.383 1.60318 112.248 1.60318H96.7345V40.5225H113.167C114.41 40.5225 115.654 40.2522 116.843 39.9279C119.221 39.1711 121.383 37.7116 122.897 35.7116C124.41 33.6035 125.221 31.117 125.221 28.6305C125.221 26.0358 124.41 23.5493 122.897 21.5493ZM112.194 8.46811C113.059 8.46811 114.356 9.17082 114.897 9.87353C115.6 10.6303 115.924 11.6573 115.978 12.6844C116.032 13.6033 115.654 14.5222 115.059 15.2249C114.464 15.9817 113.383 16.5763 112.627 16.7385H104.194V8.46811H112.194ZM117.816 28.6305C117.762 30.0359 117.275 31.3872 116.194 32.3062C115.329 33.0629 114.248 33.6035 113.059 33.6035H104.194V23.6574H113.059C114.302 23.6574 115.329 23.9277 116.41 25.0088C117.329 25.9818 117.87 27.3332 117.816 28.6305Z" fill="#372B43"/>
</g>
</svg>
