<svg width="126" height="42" viewBox="0 0 126 42" fill="none" xmlns="http://www.w3.org/2000/svg">
<g opacity="0.5">
<path d="M7.45081 1.73037H0.964264V40.6497H8.47785V15.244L26.3159 40.6497H32.8024V1.73037H25.3429V27.136L7.45081 1.73037Z" fill="#372B43"/>
<path d="M58.1574 41.4605C63.5628 41.4605 68.9142 39.4064 72.4818 35.0821C75.6711 31.1901 76.9143 26.5955 77.0224 21.19C76.9143 16.0008 75.7792 11.244 72.4818 7.24394C69.0224 3.02769 63.7791 0.919556 58.1574 0.919556C52.5357 0.919556 47.2384 2.97363 43.8329 7.24394C40.6978 11.0278 39.2923 16.0008 39.2923 21.19C39.2923 26.3793 40.6978 31.2982 43.8329 35.0821C47.1843 39.2983 52.5898 41.4605 58.1574 41.4605ZM58.1574 34.5415C54.806 34.5956 51.5627 33.2442 49.6708 30.6496C47.6708 28.055 47.0762 24.5955 47.0221 21.19C47.0762 17.7846 47.6708 14.271 49.6708 11.7305C51.5627 9.13585 54.806 7.78449 58.1574 7.83854C61.5088 7.78449 64.698 9.13585 66.644 11.7305C68.5899 14.271 69.2386 17.7846 69.2386 21.19C69.2386 24.5955 68.5899 28.055 66.644 30.6496C64.698 33.2442 61.5088 34.5956 58.1574 34.5415Z" fill="#372B43"/>
<path d="M110.56 1.73037H78.6677V9.0818H90.9381V40.6497H98.2895V9.0818H110.56V1.73037Z" fill="#372B43"/>
<path d="M137.513 40.6497H145.081L133.189 1.73037H122.215L110.323 40.6497H117.891L119.729 34.5956H135.621L137.513 40.6497ZM121.837 27.6766L127.621 8.64936L133.513 27.6766H121.837Z" fill="#372B43"/>
<path d="M175.861 21.6765C175.267 20.9198 174.618 20.217 173.915 19.5684C173.969 19.5143 174.077 19.4062 174.131 19.2981C175.591 17.4603 176.456 15.0819 176.402 12.8116C176.348 10.4332 175.591 8.05476 174.131 6.21691C172.834 4.32499 170.834 2.91958 168.564 2.27092C167.483 1.89254 166.348 1.73037 165.212 1.73037H149.699V40.6497H166.131C167.375 40.6497 168.618 40.3794 169.807 40.0551C172.186 39.2983 174.348 37.8388 175.861 35.8388C177.375 33.7307 178.186 31.2442 178.186 28.7577C178.186 26.163 177.375 23.6765 175.861 21.6765ZM165.158 8.59531C166.023 8.59531 167.321 9.29802 167.861 10.0007C168.564 10.7575 168.888 11.7845 168.942 12.8116C168.996 13.7305 168.618 14.6494 168.023 15.3521C167.429 16.1089 166.348 16.7035 165.591 16.8657H157.158V8.59531H165.158ZM170.78 28.7577C170.726 30.1631 170.24 31.5144 169.158 32.4334C168.294 33.1901 167.212 33.7307 166.023 33.7307H157.158V23.7846H166.023C167.267 23.7846 168.294 24.0549 169.375 25.136C170.294 26.109 170.834 27.4604 170.78 28.7577Z" fill="#372B43"/>
</g>
</svg>
