<svg width="171" height="41" viewBox="0 0 171 41" fill="none" xmlns="http://www.w3.org/2000/svg">
<g opacity="0.5">
<path d="M-0.539985 0.810818H-7.02654V39.7301H0.487051V14.3245L18.3251 39.7301H24.8116V0.810818H17.3521V26.2165L-0.539985 0.810818Z" fill="#372B43"/>
<path d="M50.1666 40.5409C55.572 40.5409 60.9234 38.4869 64.491 34.1625C67.6803 30.2706 68.9235 25.6759 69.0316 20.2705C68.9235 15.0812 67.7884 10.3244 64.491 6.32439C61.0316 2.10813 55.7883 0 50.1666 0C44.5449 0 39.2476 2.05407 35.8421 6.32439C32.707 10.1082 31.3015 15.0812 31.3015 20.2705C31.3015 25.4597 32.707 30.3787 35.8421 34.1625C39.1935 38.3787 44.599 40.5409 50.1666 40.5409ZM50.1666 33.6219C46.8152 33.676 43.5719 32.3246 41.68 29.73C39.68 27.1354 39.0854 23.6759 39.0313 20.2705C39.0854 16.865 39.68 13.3515 41.68 10.8109C43.5719 8.2163 46.8152 6.86493 50.1666 6.91899C53.518 6.86493 56.7072 8.2163 58.6532 10.8109C60.5991 13.3515 61.2478 16.865 61.2478 20.2705C61.2478 23.6759 60.5991 27.1354 58.6532 29.73C56.7072 32.3246 53.518 33.676 50.1666 33.6219Z" fill="#372B43"/>
<path d="M102.569 0.810818H70.6769V8.16224H82.9473V39.7301H90.2987V8.16224H102.569V0.810818Z" fill="#372B43"/>
<path d="M129.522 39.7301H137.09L125.198 0.810818H114.225L102.333 39.7301H109.9L111.738 33.676H127.63L129.522 39.7301ZM113.846 26.757L119.63 7.72981L125.522 26.757H113.846Z" fill="#372B43"/>
<path d="M167.87 20.757C167.276 20.0002 166.627 19.2975 165.924 18.6488C165.979 18.5948 166.087 18.4867 166.141 18.3786C167.6 16.5407 168.465 14.1623 168.411 11.892C168.357 9.5136 167.6 7.13521 166.141 5.29735C164.843 3.40544 162.843 2.00002 160.573 1.35137C159.492 0.972983 158.357 0.810818 157.222 0.810818H141.708V39.7301H158.141C159.384 39.7301 160.627 39.4598 161.816 39.1355C164.195 38.3787 166.357 36.9193 167.87 34.9193C169.384 32.8111 170.195 30.3246 170.195 27.8381C170.195 25.2435 169.384 22.757 167.87 20.757ZM157.168 7.67575C158.032 7.67575 159.33 8.37846 159.87 9.08117C160.573 9.83793 160.897 10.865 160.951 11.892C161.005 12.8109 160.627 13.7299 160.033 14.4326C159.438 15.1893 158.357 15.7839 157.6 15.9461H149.168V7.67575H157.168ZM162.789 27.8381C162.735 29.2435 162.249 30.5949 161.168 31.5138C160.303 32.2706 159.222 32.8111 158.032 32.8111H149.168V22.8651H158.032C159.276 22.8651 160.303 23.1354 161.384 24.2165C162.303 25.1894 162.843 26.5408 162.789 27.8381Z" fill="#372B43"/>
</g>
</svg>
