<svg width="162" height="41" viewBox="0 0 162 41" fill="none" xmlns="http://www.w3.org/2000/svg">
<g opacity="0.5">
<path d="M6.63194 0.810818H0.145386V39.7301H7.65897V14.3245L25.497 39.7301H31.9835V0.810818H24.524V26.2165L6.63194 0.810818Z" fill="#372B43"/>
<path d="M57.3385 40.5409C62.744 40.5409 68.0954 38.4869 71.663 34.1625C74.8522 30.2706 76.0954 25.6759 76.2036 20.2705C76.0954 15.0812 74.9603 10.3244 71.663 6.32439C68.2035 2.10813 62.9602 0 57.3385 0C51.7168 0 46.4195 2.05407 43.014 6.32439C39.8789 10.1082 38.4735 15.0812 38.4735 20.2705C38.4735 25.4597 39.8789 30.3787 43.014 34.1625C46.3654 38.3787 51.7709 40.5409 57.3385 40.5409ZM57.3385 33.6219C53.9871 33.676 50.7438 32.3246 48.8519 29.73C46.8519 27.1354 46.2573 23.6759 46.2033 20.2705C46.2573 16.865 46.8519 13.3515 48.8519 10.8109C50.7438 8.2163 53.9871 6.86493 57.3385 6.91899C60.6899 6.86493 63.8791 8.2163 65.8251 10.8109C67.771 13.3515 68.4197 16.865 68.4197 20.2705C68.4197 23.6759 67.771 27.1354 65.8251 29.73C63.8791 32.3246 60.6899 33.676 57.3385 33.6219Z" fill="#372B43"/>
<path d="M109.741 0.810818H77.8488V8.16224H90.1192V39.7301H97.4706V8.16224H109.741V0.810818Z" fill="#372B43"/>
<path d="M136.694 39.7301H144.262L132.37 0.810818H121.397L109.505 39.7301H117.072L118.91 33.676H134.802L136.694 39.7301ZM121.018 26.757L126.802 7.72981L132.694 26.757H121.018Z" fill="#372B43"/>
<path d="M175.042 20.757C174.448 20.0002 173.799 19.2975 173.096 18.6488C173.15 18.5948 173.259 18.4867 173.313 18.3786C174.772 16.5407 175.637 14.1623 175.583 11.892C175.529 9.5136 174.772 7.13521 173.313 5.29735C172.015 3.40544 170.015 2.00002 167.745 1.35137C166.664 0.972983 165.529 0.810818 164.394 0.810818H148.88V39.7301H165.313C166.556 39.7301 167.799 39.4598 168.988 39.1355C171.367 38.3787 173.529 36.9193 175.042 34.9193C176.556 32.8111 177.367 30.3246 177.367 27.8381C177.367 25.2435 176.556 22.757 175.042 20.757ZM164.34 7.67575C165.204 7.67575 166.502 8.37846 167.042 9.08117C167.745 9.83793 168.069 10.865 168.123 11.892C168.177 12.8109 167.799 13.7299 167.204 14.4326C166.61 15.1893 165.529 15.7839 164.772 15.9461H156.339V7.67575H164.34ZM169.961 27.8381C169.907 29.2435 169.421 30.5949 168.34 31.5138C167.475 32.2706 166.394 32.8111 165.204 32.8111H156.339V22.8651H165.204C166.448 22.8651 167.475 23.1354 168.556 24.2165C169.475 25.1894 170.015 26.5408 169.961 27.8381Z" fill="#372B43"/>
</g>
</svg>
